<?xml version="1.0" standalone="no"?>
<!DOCTYPE svg PUBLIC "-//W3C//DTD SVG 20010904//EN"
 "http://www.w3.org/TR/2001/REC-SVG-20010904/DTD/svg10.dtd">
<svg version="1.0" xmlns="http://www.w3.org/2000/svg"
 width="435.000000pt" height="435.000000pt" viewBox="0 0 435.000000 435.000000"
 preserveAspectRatio="xMidYMid meet">
<metadata>
Created by potrace 1.11, written by Peter Selinger 2001-2013
</metadata>
<g transform="translate(0.000000,435.000000) scale(0.100000,-0.100000)"
fill="#000000" stroke="none">
<path d="M2645 4170 c-3 -6 1 -7 9 -4 18 7 21 14 7 14 -6 0 -13 -4 -16 -10z"/>
<path d="M2730 4170 c0 -5 5 -10 11 -10 5 0 7 5 4 10 -3 6 -8 10 -11 10 -2 0
-4 -4 -4 -10z"/>
<path d="M2445 4149 c-4 -6 -5 -12 -2 -15 2 -3 7 2 10 11 7 17 1 20 -8 4z"/>
<path d="M2475 4151 c-6 -11 13 -26 22 -17 4 3 1 6 -6 6 -7 0 -9 5 -6 10 3 6
4 10 1 10 -3 0 -7 -4 -11 -9z"/>
<path d="M2615 4150 c4 -6 -9 -11 -32 -12 -21 0 -42 -2 -48 -3 -35 -7 -72 -18
-87 -26 -10 -5 -25 -9 -33 -9 -8 0 -15 -5 -15 -12 0 -6 -3 -9 -6 -5 -4 3 -21
-5 -40 -19 -19 -15 -38 -23 -45 -18 -7 4 -9 3 -6 -3 6 -10 -27 -43 -44 -43 -5
0 -7 -4 -4 -10 3 -5 -1 -10 -10 -10 -10 0 -13 -5 -9 -12 5 -8 2 -9 -10 -5 -10
4 -15 3 -11 -4 4 -5 -4 -24 -17 -42 -28 -37 -73 -128 -69 -141 1 -5 -6 -6 -15
-2 -13 5 -14 3 -6 -6 5 -7 8 -26 5 -41 -3 -16 -9 -24 -12 -18 -4 5 -6 -31 -5
-82 2 -72 -1 -94 -14 -103 -12 -9 -12 -13 -2 -19 9 -5 11 -4 6 3 -4 7 -1 12 7
12 7 0 14 -6 15 -12 0 -7 2 -30 3 -50 1 -21 6 -35 11 -32 4 3 8 1 8 -5 0 -5
-6 -12 -12 -14 -8 -3 -5 -6 5 -6 10 -1 15 -5 12 -11 -3 -5 -2 -10 3 -10 6 0
13 -7 16 -16 3 -8 2 -12 -4 -9 -6 3 -10 1 -10 -4 0 -6 6 -11 13 -11 7 0 18 -9
25 -21 8 -12 9 -18 4 -15 -6 3 -12 -1 -15 -9 -4 -8 -1 -12 6 -10 14 6 24 -1
55 -37 17 -19 20 -28 11 -33 -7 -5 -10 -4 -5 3 3 6 2 13 -4 17 -5 3 -10 2 -10
-3 0 -5 -20 -10 -44 -10 -24 -1 -50 -3 -57 -4 -8 -2 -13 4 -13 14 1 10 -2 15
-7 12 -5 -3 -9 -12 -9 -19 0 -11 -6 -12 -26 -5 -16 7 -23 7 -19 0 3 -6 -3 -10
-14 -10 -12 0 -21 6 -21 14 0 8 -4 17 -8 20 -5 3 -8 -4 -8 -16 1 -13 -6 -22
-19 -24 -50 -8 -71 -8 -84 0 -10 7 -12 5 -6 -4 6 -9 2 -10 -15 -5 -15 5 -20 4
-16 -3 4 -7 -1 -9 -14 -7 -11 2 -20 0 -20 -4 0 -4 -7 -8 -15 -8 -13 0 -20 17
-16 40 1 5 -3 6 -7 3 -5 -3 -7 -17 -4 -31 3 -21 0 -25 -17 -25 -12 0 -31 -5
-42 -11 -17 -8 -23 -7 -34 8 -13 17 -14 17 -10 -4 3 -16 -1 -23 -11 -23 -8 0
-33 -9 -55 -21 -26 -13 -38 -15 -33 -7 4 7 -2 4 -14 -6 -12 -11 -22 -16 -22
-12 0 4 -7 0 -16 -9 -12 -12 -19 -13 -30 -4 -15 12 -34 4 -33 -14 0 -9 2 -9 6
1 5 14 23 17 23 4 0 -15 -43 -29 -82 -28 -20 1 -34 -2 -31 -7 3 -5 16 -6 29
-3 31 8 30 2 -2 -19 -15 -9 -23 -12 -20 -6 4 6 2 11 -3 11 -6 0 -11 -4 -11 -9
0 -5 -27 -29 -61 -53 -33 -23 -79 -59 -102 -79 -22 -21 -47 -35 -54 -32 -7 3
-10 10 -6 16 3 6 1 7 -5 3 -9 -5 -9 -13 -2 -27 9 -16 7 -21 -14 -31 -14 -6
-23 -15 -19 -21 3 -5 -4 -6 -18 -2 -18 5 -20 4 -9 -4 13 -9 13 -12 1 -23 -11
-11 -13 -11 -6 1 5 9 4 12 -3 7 -7 -4 -12 -14 -12 -22 0 -8 -3 -14 -7 -14 -5
0 -26 -25 -47 -55 -41 -57 -49 -66 -40 -40 4 8 1 15 -6 15 -6 0 -9 -4 -6 -8 5
-9 -27 -75 -47 -98 -25 -28 -37 -44 -37 -46 4 -12 -14 -37 -23 -31 -5 3 -7 1
-3 -5 9 -15 -35 -103 -47 -95 -6 4 -8 0 -5 -9 4 -8 0 -28 -7 -44 -7 -16 -19
-43 -26 -61 -7 -17 -18 -29 -24 -26 -5 3 -5 0 2 -7 17 -18 -4 -59 -28 -55 -10
2 -21 0 -24 -5 -3 -5 3 -7 15 -5 11 2 22 0 25 -6 4 -5 1 -9 -6 -9 -7 0 -10 -2
-7 -6 3 -3 1 -22 -4 -42 -5 -20 -11 -50 -14 -67 -7 -46 -15 -66 -24 -60 -4 3
-10 -2 -13 -10 -4 -8 -1 -12 7 -9 8 3 12 -5 12 -26 0 -22 -4 -29 -13 -25 -9 3
-11 1 -6 -8 12 -19 11 -97 -1 -90 -7 4 -6 1 1 -8 12 -15 13 -70 1 -62 -5 2 -8
-1 -8 -6 0 -6 6 -11 13 -11 8 0 7 -4 -3 -10 -8 -5 -10 -10 -4 -10 8 0 11 -23
10 -70 0 -39 2 -70 7 -70 12 0 8 -48 -5 -53 -8 -3 -5 -6 6 -6 16 -1 17 -3 5
-18 -10 -11 -10 -14 -2 -9 12 7 17 -11 16 -66 0 -10 4 -18 8 -18 15 0 14 -55
-1 -67 -12 -10 -11 -11 10 -7 25 5 25 5 5 -12 -17 -14 -17 -16 -2 -11 9 4 18
2 18 -3 3 -19 12 -45 34 -94 7 -16 11 -36 7 -44 -4 -11 -1 -13 7 -7 10 6 11 2
6 -15 -6 -20 -5 -21 8 -9 16 15 17 30 5 40 -5 3 -9 18 -10 35 -1 16 -4 34 -7
39 -12 22 -11 46 1 40 7 -4 5 0 -5 8 -16 13 -16 15 -2 21 15 5 15 8 1 28 -12
17 -13 25 -3 37 10 12 9 13 -2 6 -11 -6 -13 -4 -8 8 3 9 2 19 -3 22 -5 3 -5
16 2 30 8 18 8 28 0 38 -6 7 -7 18 -2 26 4 8 6 21 2 29 -4 11 -1 13 7 7 10 -5
11 -3 4 11 -13 26 -11 43 7 54 10 7 11 10 2 10 -15 0 -11 21 8 38 8 8 10 11 3
8 -7 -4 -11 1 -10 14 1 11 6 20 12 20 5 0 4 4 -3 9 -11 7 -11 9 2 14 9 4 16
12 16 19 0 9 -3 8 -10 -2 -13 -20 -12 -10 1 28 6 18 15 29 20 26 5 -3 9 0 9 5
0 6 -4 11 -9 11 -5 0 -4 14 2 30 7 17 17 28 24 26 7 -3 15 0 19 6 4 6 3 8 -3
5 -17 -11 -24 21 -8 37 8 7 11 16 8 20 -3 3 2 15 12 26 10 11 14 20 9 20 -5 0
-2 5 6 10 8 5 16 14 16 20 1 5 2 15 3 21 0 5 6 7 13 3 8 -5 9 -2 5 10 -4 10
-1 19 8 22 8 4 12 11 8 17 -4 6 0 8 9 5 9 -4 14 0 14 11 -2 39 195 250 237
253 14 1 23 6 21 10 -3 5 -11 6 -17 2 -7 -3 2 5 18 19 17 15 50 36 75 49 24
13 50 28 58 35 14 13 45 6 36 -8 -3 -5 0 -9 5 -9 14 0 14 17 1 25 -6 4 -8 11
-4 16 3 5 10 7 15 4 5 -4 16 1 24 9 17 17 204 80 213 71 3 -2 11 0 19 7 10 8
17 8 25 0 13 -13 40 -4 31 11 -4 7 0 8 11 4 10 -4 23 -4 29 0 7 4 26 8 42 9
17 1 35 2 41 3 5 1 24 21 41 44 30 43 51 52 81 33 6 -4 17 -4 24 0 8 5 9 1 5
-12 -7 -18 -6 -18 8 1 9 11 13 26 10 33 -3 8 0 12 7 10 22 -8 19 -26 -9 -52
-31 -29 -45 -33 -37 -11 4 8 2 15 -2 16 -5 0 -21 2 -37 4 -19 3 -30 -2 -37
-15 -8 -16 -6 -18 16 -15 15 1 23 -2 21 -9 -2 -6 -11 -10 -21 -8 -9 2 -16 -1
-16 -6 0 -14 34 -10 46 6 6 8 16 12 23 8 16 -10 -4 -36 -28 -36 -13 0 -13 -2
-2 -9 7 -5 9 -10 5 -13 -8 -4 -17 -4 -41 1 -5 1 -1 6 7 11 9 6 10 10 3 10 -18
0 -27 -21 -12 -30 7 -5 17 -6 21 -4 11 7 10 2 -7 -40 -15 -35 -35 -49 -35 -23
0 8 -3 8 -8 2 -12 -18 -70 -17 -80 1 -8 15 -10 15 -15 0 -4 -10 -3 -15 3 -11
6 3 10 1 10 -6 0 -7 -11 -10 -30 -7 -16 2 -31 1 -32 -3 -2 -4 -16 -8 -33 -10
-16 -2 -35 -7 -42 -12 -7 -5 -17 -6 -23 -2 -5 3 -10 1 -10 -6 0 -6 -8 -9 -20
-6 -10 3 -24 -1 -30 -8 -6 -8 -18 -11 -26 -8 -8 3 -14 0 -14 -7 0 -7 -8 -10
-20 -7 -11 3 -18 2 -15 -3 7 -11 -21 -20 -31 -10 -5 5 -15 5 -24 -1 -13 -9
-12 -10 3 -5 34 11 16 -11 -28 -33 -24 -12 -47 -26 -50 -31 -3 -5 -12 -7 -21
-3 -8 3 -14 2 -13 -3 4 -23 -2 -26 -16 -8 -15 18 -15 18 -8 0 4 -13 3 -17 -5
-12 -7 4 -10 2 -7 -6 5 -14 -53 -65 -68 -60 -4 1 -6 -3 -5 -9 2 -6 -3 -14 -11
-17 -8 -3 -11 0 -7 7 4 6 3 11 -3 11 -16 0 -23 -18 -9 -22 9 -3 8 -9 -4 -21
-12 -12 -18 -14 -21 -4 -3 6 -6 2 -6 -10 -1 -14 -7 -23 -17 -23 -8 0 -12 -4
-9 -10 3 -6 -4 -10 -17 -10 -16 0 -19 -3 -10 -8 10 -7 7 -15 -10 -38 -12 -16
-27 -32 -33 -36 -5 -4 -10 -11 -10 -15 -1 -4 -12 -27 -25 -51 -16 -26 -30 -40
-39 -37 -11 4 -11 3 -2 -9 9 -11 9 -16 -1 -23 -7 -4 -13 -14 -14 -20 -1 -7 -2
-20 -2 -28 -1 -8 -10 -15 -19 -16 -11 0 -13 -3 -6 -6 10 -4 10 -9 1 -26 -7
-12 -13 -32 -13 -44 -1 -12 -8 -30 -16 -40 -11 -13 -11 -15 -1 -9 11 7 12 4 3
-12 -6 -11 -11 -30 -11 -42 0 -12 -4 -19 -9 -16 -5 3 -9 -6 -8 -22 1 -83 -3
-113 -16 -106 -9 6 -9 4 -1 -7 14 -18 14 -50 0 -68 -8 -11 -8 -13 2 -7 6 4 12
3 12 -2 0 -15 -13 -22 -25 -14 -6 4 -2 -1 8 -10 14 -13 18 -28 15 -53 -2 -19
0 -35 5 -35 5 0 7 -9 4 -20 -3 -11 -2 -20 2 -20 7 0 12 -36 12 -83 0 -11 5
-15 12 -10 7 4 5 -2 -3 -12 -9 -11 -10 -16 -3 -11 8 4 13 1 13 -8 0 -9 0 -18
0 -21 1 -2 12 -28 25 -57 22 -47 25 -75 6 -64 -4 3 -8 -1 -8 -9 0 -11 4 -12
13 -4 19 15 33 3 30 -26 -2 -13 0 -22 5 -20 6 4 99 -126 99 -139 0 -2 -11 -2
-25 -1 -14 2 -23 0 -20 -4 2 -4 14 -7 27 -6 25 2 48 -11 48 -29 0 -7 -4 -6 -9
2 -7 11 -9 11 -14 -1 -4 -12 0 -15 14 -12 23 5 72 -41 62 -58 -4 -6 -1 -7 6
-3 7 5 26 -6 47 -28 19 -20 39 -36 43 -36 5 0 11 -9 14 -21 3 -11 11 -19 19
-17 20 4 98 -45 98 -62 0 -13 1 -13 10 0 9 14 11 13 14 -9 0 -5 5 -13 10 -18
5 -5 6 -3 2 5 -4 6 -3 12 3 12 15 0 33 -38 25 -52 -4 -7 -3 -8 5 -4 7 5 9 16
5 29 -6 19 -5 20 9 8 9 -7 14 -18 10 -25 -4 -8 -3 -8 6 0 13 12 71 -3 71 -18
0 -4 7 -5 15 -2 9 4 18 -1 21 -11 5 -13 9 -14 15 -3 6 10 11 10 21 0 6 -6 27
-12 45 -12 18 0 34 -4 34 -10 1 -5 2 -14 3 -19 0 -5 5 -13 10 -18 5 -5 6 -2 1
6 -6 11 -3 13 13 9 29 -8 28 0 0 12 -19 7 -20 9 -5 9 10 1 27 -4 38 -9 10 -6
19 -7 19 -2 0 12 50 3 69 -12 11 -8 13 -8 7 2 -4 6 -2 12 3 12 6 0 11 -8 12
-17 0 -15 2 -15 9 2 6 13 9 15 9 5 1 -9 4 -11 9 -5 10 16 62 17 62 2 1 -7 6
-4 14 6 10 12 16 15 21 7 5 -7 11 -8 19 -1 6 6 21 11 31 11 11 1 36 2 57 3 20
1 34 5 31 10 -2 4 1 7 6 7 6 0 11 -5 11 -12 0 -6 6 -4 13 6 7 9 24 18 38 20
13 1 31 6 39 11 8 6 38 19 67 31 38 16 55 18 63 10 8 -8 10 -7 5 4 -4 11 7 23
36 38 48 26 56 27 39 7 -7 -8 -9 -15 -5 -15 4 0 1 -8 -6 -17 -13 -16 -12 -17
3 -5 10 8 17 17 16 20 0 4 1 10 2 15 1 4 3 11 4 16 2 13 83 79 107 86 11 4 18
9 15 13 -8 8 24 42 40 42 7 0 16 5 20 12 5 7 3 8 -6 3 -9 -5 -11 -4 -6 4 4 6
12 9 17 6 5 -4 9 0 9 7 0 8 18 33 39 56 22 23 41 47 43 53 2 7 14 14 27 16 15
2 20 -1 15 -9 -4 -7 -3 -8 5 -4 15 10 3 29 -15 22 -8 -3 -14 -3 -14 0 0 13 32
64 40 64 6 0 9 3 8 8 -1 4 5 21 12 37 7 17 13 33 12 38 -1 4 6 7 15 7 15 0 16
2 3 10 -12 8 -12 10 5 10 16 0 17 2 5 10 -12 8 -12 11 2 27 8 10 13 24 10 32
-3 8 0 11 7 7 6 -4 9 -2 5 7 -3 8 5 19 18 26 13 6 15 9 6 7 -15 -5 -17 0 -12
32 3 20 9 44 13 52 3 8 6 29 6 45 0 19 7 35 20 43 13 9 14 12 4 8 -12 -3 -16
2 -16 20 0 13 3 21 8 18 5 -3 9 0 9 5 0 6 -4 11 -8 11 -4 0 -8 9 -9 20 -1 11
2 18 8 15 5 -4 9 -1 9 4 0 6 -4 11 -8 11 -5 0 -9 21 -9 46 -1 31 2 42 8 33 6
-11 9 -11 9 -1 0 7 -7 15 -16 19 -8 3 -13 12 -10 19 3 8 1 25 -4 38 -6 16 -5
28 3 36 9 10 9 11 0 6 -14 -7 -17 11 -15 69 1 26 0 27 -7 10 -9 -19 -10 -18
-12 5 -1 14 -2 31 -2 37 1 7 -2 13 -6 13 -7 0 -35 66 -36 85 -1 6 -13 31 -29
57 -15 26 -25 52 -21 58 4 6 1 9 -6 8 -6 -2 -14 3 -16 10 -3 7 1 10 10 6 18
-7 32 12 16 22 -8 4 -9 3 -5 -4 6 -10 -19 -11 -44 -2 -3 2 -9 2 -13 1 -5 -1
-6 3 -2 9 4 6 15 8 25 5 29 -9 31 9 5 45 -13 18 -21 38 -18 43 4 6 9 3 13 -7
3 -10 10 -17 15 -16 6 1 13 -9 16 -22 3 -13 12 -22 19 -20 8 2 10 -3 7 -13 -4
-8 -2 -15 4 -15 6 0 9 7 7 16 -2 8 -7 15 -13 14 -5 -1 -13 9 -16 22 -3 13 -11
22 -17 20 -7 -1 -12 6 -12 16 0 10 8 18 19 19 14 1 18 -3 14 -13 -3 -8 0 -14
7 -14 6 0 8 5 5 10 -3 6 0 10 7 10 8 0 6 5 -4 11 -10 5 -18 15 -18 20 0 6 4 8
9 5 4 -3 17 1 27 9 11 8 14 14 6 15 -14 0 -12 21 3 32 6 5 5 8 -2 8 -7 0 -13
5 -13 11 0 5 4 8 9 4 5 -3 13 0 17 6 4 7 3 9 -4 5 -7 -4 -10 1 -9 14 1 11 5
20 10 20 4 0 5 4 2 10 -3 6 -2 10 4 10 11 0 10 -74 -1 -85 -4 -4 -4 -18 -2
-31 2 -13 0 -24 -5 -24 -6 0 -8 -9 -6 -20 2 -11 -1 -20 -7 -20 -5 0 -8 -6 -5
-14 4 -9 -1 -17 -11 -19 -13 -4 -12 -5 5 -6 25 -1 67 -61 53 -75 -6 -6 -10
-15 -10 -20 0 -6 4 -5 9 3 5 7 14 10 20 7 6 -4 9 -11 6 -16 -3 -5 0 -12 8 -17
7 -4 18 -21 25 -36 7 -16 8 -25 2 -22 -5 3 -10 2 -10 -3 0 -6 7 -13 16 -16 8
-3 12 -10 9 -16 -3 -5 -2 -10 3 -10 14 0 56 -134 43 -138 -6 -2 -11 -8 -11
-14 0 -6 6 -8 13 -5 8 3 14 0 14 -6 0 -7 4 -21 9 -31 5 -14 4 -17 -4 -12 -7 4
-12 2 -12 -3 0 -6 4 -11 9 -11 5 0 11 -11 13 -25 3 -14 1 -25 -6 -25 -8 0 -8
-2 0 -8 16 -11 25 -42 12 -42 -7 0 -7 -4 0 -12 5 -7 10 -26 10 -42 0 -19 -3
-24 -9 -15 -7 11 -9 10 -9 -3 0 -10 4 -18 9 -18 5 0 8 -26 8 -57 0 -39 -2 -51
-8 -38 -8 20 -8 20 -8 -1 -1 -11 4 -25 10 -31 7 -7 7 -13 0 -17 -5 -4 -7 -14
-4 -23 5 -12 3 -14 -8 -8 -12 8 -12 6 -1 -8 8 -9 10 -21 6 -28 -6 -11 -8 -22
-13 -69 -1 -13 -2 -13 -11 0 -6 9 -5 17 3 22 9 6 9 8 -1 8 -7 0 -10 5 -6 12 4
6 3 8 -4 4 -13 -8 -8 -42 9 -62 12 -15 8 -17 -26 -15 -18 1 -18 0 3 -9 12 -5
22 -15 22 -22 0 -9 -3 -9 -11 2 -9 12 -10 10 -6 -9 6 -26 -10 -69 -33 -89 -8
-8 -10 -11 -3 -7 8 4 7 -9 -4 -40 -10 -25 -23 -45 -30 -45 -7 0 -13 -5 -13
-11 0 -5 5 -7 11 -3 8 5 8 1 0 -14 -6 -12 -17 -24 -24 -28 -9 -6 -9 -4 1 8 10
13 10 17 -2 21 -9 4 -18 1 -22 -5 -4 -6 -3 -8 3 -5 6 4 10 -6 11 -23 0 -21 -3
-27 -14 -23 -10 4 -12 0 -8 -11 6 -17 -79 -146 -97 -146 -6 0 -7 5 -3 12 4 7
3 8 -4 4 -6 -4 -9 -13 -6 -20 7 -19 -42 -70 -57 -60 -8 5 -9 3 -4 -6 6 -10 4
-12 -11 -6 -14 5 -16 4 -8 -4 9 -9 7 -17 -8 -32 -18 -18 -24 -19 -42 -8 -17
10 -19 10 -8 -1 14 -16 16 -33 2 -24 -5 3 -10 -1 -10 -10 0 -13 -4 -14 -22 -4
-22 12 -22 11 -8 -6 14 -17 13 -18 -3 -12 -10 4 -16 3 -13 -2 8 -12 -21 -34
-33 -27 -5 4 -13 1 -17 -5 -5 -8 -2 -10 7 -5 8 4 5 0 -5 -8 -11 -9 -29 -14
-40 -11 -12 3 -15 2 -8 -1 10 -5 10 -9 1 -20 -16 -20 -29 -18 -23 4 3 9 -1 6
-9 -6 -14 -24 -91 -65 -101 -54 -3 3 -6 1 -6 -5 0 -10 -54 -30 -56 -21 0 2 -8
-3 -17 -11 -14 -11 -20 -11 -32 -1 -13 11 -14 10 -10 -2 5 -11 -1 -14 -24 -13
-17 1 -28 -2 -25 -7 3 -4 -4 -8 -15 -8 -10 0 -27 -3 -37 -7 -11 -4 -15 -3 -10
5 3 6 1 14 -5 18 -7 4 -9 3 -6 -3 4 -6 -1 -17 -10 -24 -14 -12 -16 -12 -8 1 7
12 6 13 -6 3 -8 -7 -24 -12 -34 -11 -11 1 -35 -2 -52 -6 -25 -6 -33 -4 -33 6
0 9 -3 9 -8 2 -11 -17 -105 -13 -120 5 -11 14 -12 14 -7 0 5 -13 0 -15 -27
-11 -18 2 -39 10 -47 16 -12 8 -13 8 -7 -2 6 -10 0 -11 -25 -7 -18 3 -38 10
-44 15 -8 7 -12 5 -12 -5 0 -8 3 -12 7 -10 3 2 18 -2 33 -10 14 -7 29 -10 33
-7 4 4 4 -2 0 -12 -5 -15 -4 -17 7 -7 17 14 120 -6 110 -22 -3 -5 3 -4 14 1
24 13 41 3 37 -21 -1 -11 1 -16 4 -12 4 4 7 11 7 16 0 5 4 8 10 7 5 -2 9 -7 7
-11 -1 -5 3 -5 10 0 20 12 78 12 78 -1 0 -6 5 -4 10 4 8 12 10 12 10 -5 0 -11
4 -15 8 -10 4 6 14 11 23 13 12 2 16 -5 13 -24 -1 -14 1 -23 4 -19 4 3 7 14 7
23 0 15 13 17 95 17 52 0 98 5 102 10 5 6 8 5 8 -4 0 -9 4 -10 13 -4 19 15 69
15 62 0 -4 -6 0 -4 8 5 11 14 16 15 27 5 10 -10 11 -9 5 3 -5 9 1 8 16 -5 15
-13 19 -14 11 -3 -11 14 -10 17 7 23 12 3 25 4 30 0 5 -3 12 -1 16 5 9 14 27
1 19 -13 -4 -7 -3 -8 2 -4 5 5 9 14 9 20 0 7 11 12 25 12 14 0 28 5 33 10 4 6
11 4 17 -5 8 -13 10 -12 10 4 0 12 5 16 15 12 8 -3 15 -1 15 5 0 6 5 7 10 4 6
-3 10 -1 10 5 0 7 6 10 13 7 7 -3 21 1 32 9 10 8 27 14 36 14 10 0 25 7 34 17
14 14 18 14 26 2 7 -11 9 -11 9 4 0 15 6 19 26 16 4 0 10 4 13 9 3 5 29 21 57
35 27 14 56 33 63 41 8 9 21 16 30 16 9 0 23 9 31 19 7 11 17 18 21 16 4 -3 9
2 13 10 7 18 27 20 22 3 -1 -7 -1 -10 1 -5 3 4 10 4 16 0 8 -4 8 -1 -1 9 -10
12 -9 18 3 28 12 10 15 10 16 -1 0 -8 5 -1 11 14 8 23 13 26 24 16 12 -10 13
-9 8 6 -5 13 -3 16 7 13 8 -3 13 -11 11 -17 -1 -7 2 -10 8 -6 8 5 7 11 -1 21
-10 12 -5 22 26 52 21 20 35 31 31 25 -5 -9 -2 -11 8 -7 9 3 12 12 9 21 -4 11
-2 14 5 9 7 -4 12 -1 12 8 0 8 18 34 40 58 22 24 40 47 40 51 0 5 5 5 12 1 7
-5 9 -2 5 9 -7 17 15 41 28 29 5 -4 5 1 2 11 -4 11 -3 16 3 12 6 -3 10 3 10
13 0 11 12 33 28 49 15 17 27 38 27 49 0 12 6 18 17 16 9 -1 19 2 23 8 3 6 0
7 -9 4 -9 -3 -16 -1 -16 5 0 6 8 11 18 12 9 0 12 3 5 5 -14 6 3 54 19 54 5 0
6 5 3 10 -3 6 2 10 12 10 15 0 16 2 3 10 -14 9 -7 15 15 10 6 -1 5 4 -2 11
-10 10 -9 15 5 26 9 8 11 11 3 7 -9 -4 -12 -2 -9 7 3 8 10 13 16 12 7 -2 9 4
5 14 -4 11 -3 14 5 9 7 -4 12 -2 12 3 0 6 -4 11 -10 11 -9 0 -4 21 17 70 3 8
7 20 7 25 1 6 9 10 18 10 9 0 20 4 25 9 4 5 3 7 -2 3 -6 -3 -17 -2 -23 2 -10
6 -8 26 6 89 11 45 19 92 18 104 -1 13 5 29 14 36 8 8 9 11 3 7 -7 -3 -13 -2
-13 4 0 5 8 12 18 14 16 4 16 5 0 6 -14 1 -17 9 -15 40 1 22 5 37 10 34 4 -2
7 1 7 6 0 6 -4 11 -8 11 -4 0 -8 11 -8 24 0 14 3 23 6 21 3 -2 12 6 19 18 11
18 11 20 0 10 -22 -21 -27 -15 -26 30 0 24 -3 50 -8 57 -6 10 -4 12 9 7 9 -4
15 -3 11 2 -3 5 1 12 7 14 10 4 10 6 0 6 -7 1 -10 6 -7 11 4 6 3 10 -2 9 -20
-3 -27 2 -13 11 11 7 11 10 2 10 -7 0 -10 4 -7 10 3 5 2 10 -3 10 -5 0 -9 7
-9 15 0 10 7 14 21 10 18 -4 18 -3 -2 7 -15 8 -22 18 -19 30 3 10 2 18 -3 18
-10 0 -45 148 -42 174 1 11 -1 17 -5 13 -7 -7 -53 96 -53 119 0 7 -6 14 -12
17 -10 3 -10 8 1 21 13 15 12 18 -7 23 -12 3 -22 9 -22 14 0 14 -4 23 -17 39
-41 52 -122 184 -116 193 3 6 1 7 -5 3 -6 -3 -18 7 -28 23 -10 17 -21 28 -25
26 -7 -5 -23 24 -21 38 1 4 -5 7 -14 7 -10 0 -14 5 -10 16 3 8 2 13 -2 10 -9
-5 -62 36 -62 48 0 4 4 5 9 2 5 -3 15 2 22 12 12 15 12 16 -1 6 -8 -6 -23 -10
-33 -8 -23 3 -88 69 -79 79 4 4 -2 5 -13 3 -16 -2 -20 2 -19 21 1 22 0 22 -12
7 -6 -9 -14 -13 -15 -9 -2 4 -23 21 -46 37 -24 16 -40 32 -38 37 3 4 0 11 -6
15 -8 5 -9 3 -4 -6 6 -10 4 -12 -9 -7 -10 4 -20 7 -22 7 -3 0 -2 5 2 12 5 8 2
9 -10 5 -14 -6 -17 -3 -12 9 5 14 4 15 -9 4 -12 -10 -16 -9 -21 4 -4 10 -12
15 -19 12 -8 -3 -16 2 -19 10 -3 8 -9 13 -13 12 -9 -3 -13 5 -13 24 0 6 3 9 6
5 8 -8 57 17 101 50 17 13 44 28 59 32 15 4 29 13 30 19 1 7 0 8 -3 2 -2 -5
-10 -10 -16 -10 -6 0 4 16 23 35 18 19 38 31 43 28 6 -3 7 -1 3 5 -8 14 34 82
51 82 6 0 15 4 18 10 3 6 -1 7 -9 4 -13 -5 -13 -1 1 28 9 18 18 40 20 48 1 8
7 35 13 60 6 25 11 62 12 83 1 20 6 37 12 37 8 0 8 2 0 8 -13 8 -25 74 -12 66
4 -3 8 0 8 5 0 6 -5 11 -11 11 -5 0 -7 5 -4 10 3 6 1 10 -4 10 -6 0 -11 5 -11
11 0 5 4 8 8 5 5 -3 -1 16 -14 42 -12 25 -20 50 -18 54 3 5 0 8 -7 8 -7 0 -10
3 -7 6 4 3 -2 14 -13 25 -10 10 -19 26 -19 34 0 8 -5 15 -11 15 -6 0 -9 7 -6
14 4 11 1 13 -11 9 -15 -6 -16 -5 -2 12 8 10 10 16 3 12 -7 -5 -26 5 -45 22
-29 26 -31 30 -18 47 14 18 14 18 -5 2 -19 -15 -22 -15 -48 8 -17 14 -25 29
-21 37 5 9 4 9 -5 1 -9 -8 -21 -7 -46 4 -19 9 -32 19 -30 23 3 3 -7 7 -21 7
-15 0 -30 5 -34 12 -5 8 -9 9 -11 1 -3 -7 -12 -7 -29 2 -14 8 -32 11 -39 9 -7
-2 -17 2 -22 9 -6 10 -9 11 -9 2 0 -7 -5 -13 -11 -13 -5 0 -7 6 -3 13 5 7 0 6
-11 -3 -14 -11 -19 -12 -22 -2 -3 6 -9 12 -14 12 -6 0 -7 -4 -4 -10z m-244
-1311 c8 -13 13 -5 10 14 -1 4 7 3 18 -2 10 -6 21 -7 25 -4 3 3 6 -1 6 -10 0
-9 6 -17 13 -17 8 0 7 -4 -3 -10 -18 -12 -30 -13 -29 -2 3 19 -2 32 -12 32 -8
0 -8 -5 1 -15 18 -22 -3 -18 -34 6 -21 17 -29 19 -41 9 -8 -7 -15 -9 -15 -6 0
4 -8 2 -18 -3 -13 -7 -23 -6 -32 2 -10 9 -11 9 -6 0 4 -8 0 -11 -14 -8 -13 2
-18 0 -14 -7 4 -6 1 -9 -6 -6 -8 2 -16 10 -18 18 -3 9 2 11 17 7 11 -3 24 -1
27 4 3 6 13 7 22 5 10 -3 23 -2 31 3 19 12 62 6 72 -10z m-12 -13 c9 -11 9
-16 0 -22 -8 -4 -9 -3 -5 4 5 8 1 10 -10 5 -13 -5 -15 -3 -9 7 5 8 4 11 -3 7
-5 -4 -8 -16 -5 -28 4 -16 8 -17 14 -7 5 7 9 9 9 5 0 -4 8 -3 18 2 22 12 48
-2 37 -19 -4 -7 6 -2 23 10 24 18 29 27 21 37 -9 10 -8 13 5 13 9 0 16 -4 16
-10 0 -5 6 -7 14 -4 13 5 96 -26 96 -36 0 -3 -11 -6 -25 -6 -13 -1 -23 3 -22
8 1 6 -5 13 -13 15 -13 4 -13 3 0 -6 19 -13 0 -14 -20 -1 -12 8 -12 10 -1 10
8 0 12 2 9 5 -8 9 -58 -17 -52 -26 3 -5 -3 -6 -13 -3 -13 4 -14 3 -5 -4 8 -5
25 -8 38 -6 20 2 24 -1 19 -14 -3 -9 -3 -13 1 -9 4 4 13 2 21 -5 11 -9 13 -8
11 2 -2 7 3 15 10 17 11 4 12 1 2 -16 -6 -12 -14 -20 -18 -18 -32 17 -82 30
-157 41 -11 2 -26 -1 -33 -7 -9 -7 -16 -7 -20 -1 -8 11 -22 12 -38 2 -7 -5
-11 3 -11 21 0 15 5 28 11 29 24 2 46 8 52 15 11 11 20 8 33 -7z m-157 -14
c14 -11 21 -12 32 -3 11 9 15 8 20 -6 4 -10 2 -19 -3 -21 -6 -2 -9 -8 -6 -12
3 -5 0 -12 -6 -16 -8 -4 -9 -3 -5 4 4 7 2 12 -3 12 -6 0 -11 -5 -11 -11 0 -5
-5 -7 -10 -4 -6 3 -17 -1 -26 -9 -20 -21 -45 -21 -37 0 5 13 7 13 14 2 7 -10
9 -10 10 2 1 8 0 22 -1 29 -1 12 1 13 13 2 13 -10 21 -10 44 2 l28 15 -27 -1
c-14 -1 -24 -5 -21 -9 8 -14 -14 -8 -27 7 -10 12 -10 15 0 15 8 0 11 3 7 6 -3
3 -12 2 -19 -2 -7 -5 -20 -9 -28 -9 -8 0 -14 -8 -14 -17 1 -13 -5 -16 -28 -13
-25 3 -28 2 -17 -11 10 -12 9 -18 -5 -32 -17 -16 -18 -16 -12 5 4 12 2 24 -3
28 -7 4 -8 -1 -5 -12 4 -11 2 -14 -3 -7 -5 7 -14 4 -25 -8 -20 -20 -9 -25 11
-5 11 10 12 7 6 -13 -5 -19 -4 -21 4 -10 7 10 11 11 11 3 0 -7 8 -13 18 -13
13 0 14 2 4 9 -10 6 -10 10 3 21 12 10 15 10 15 0 0 -10 3 -10 15 0 8 7 15 8
15 3 0 -6 -18 -22 -40 -37 -39 -26 -40 -26 -52 -7 -9 14 -16 17 -24 10 -7 -6
-12 -16 -10 -22 1 -7 1 -9 -1 -4 -3 4 -9 7 -14 7 -6 0 -7 -4 -4 -10 3 -5 1
-10 -4 -10 -6 0 -11 5 -11 11 0 6 -7 9 -15 6 -8 -4 -17 -2 -20 3 -4 6 0 11 7
12 7 0 18 2 23 3 6 2 19 3 30 4 16 1 17 3 5 11 -9 6 -17 5 -22 -3 -6 -9 -8 -9
-8 1 0 7 15 19 33 27 17 8 28 15 22 15 -5 0 8 11 29 25 22 13 43 22 48 19 4
-3 8 -1 8 4 0 10 37 29 60 29 8 0 23 -6 32 -15z m-36 -33 c0 -10 -4 -15 -8
-13 -5 3 -10 -1 -13 -8 -3 -8 -15 -14 -25 -15 -11 -1 -18 2 -15 7 3 4 -1 11
-7 14 -7 3 0 3 16 -1 25 -5 27 -3 22 15 -5 16 -3 21 11 19 11 0 19 -9 19 -18z
m324 11 c0 -5 -2 -10 -4 -10 -3 0 -8 5 -11 10 -3 6 -1 10 4 10 6 0 11 -4 11
-10z m40 -15 c0 -12 -19 -12 -23 0 -4 9 -1 12 9 8 7 -3 14 -7 14 -8z m145 -41
c13 -12 27 -19 31 -15 4 3 4 1 1 -5 -4 -7 3 -14 15 -17 12 -4 19 -9 15 -13 -3
-4 5 -16 19 -26 14 -11 23 -23 20 -26 -3 -3 3 -12 14 -19 11 -8 18 -19 15 -24
-4 -5 -1 -9 5 -9 6 0 8 -4 5 -10 -3 -5 -11 -10 -16 -10 -6 0 -7 5 -4 10 3 6 1
10 -5 10 -7 0 -10 7 -6 15 3 8 2 14 -2 14 -27 -4 -34 1 -22 17 11 12 11 15 -1
12 -8 -2 -13 2 -12 9 1 6 -4 14 -12 17 -8 3 -12 0 -9 -8 3 -7 -4 -20 -15 -30
-18 -17 -20 -16 -40 5 -25 27 -25 68 1 66 18 -1 26 -17 9 -17 -5 0 -11 -7 -15
-15 -3 -8 0 -14 7 -12 7 1 11 -4 9 -11 -2 -10 2 -10 18 -2 11 6 18 16 14 22
-4 5 0 15 7 20 11 8 10 9 -3 5 -9 -3 -19 1 -22 9 -3 9 -11 12 -17 8 -8 -5 -9
-3 -4 6 6 9 4 11 -5 5 -9 -6 -11 -4 -5 5 6 9 4 11 -5 5 -9 -6 -11 -4 -5 5 6 9
4 11 -5 5 -9 -6 -11 -4 -5 5 5 9 4 11 -3 6 -7 -4 -12 -2 -12 5 0 7 -3 9 -7 6
-3 -4 2 -16 12 -27 10 -11 15 -23 12 -27 -9 -9 -36 27 -37 49 0 23 -16 32 -24
13 -8 -23 15 -69 27 -53 6 9 7 8 3 -5 -3 -10 -2 -16 2 -13 4 2 14 1 21 -3 8
-5 9 -11 3 -15 -5 -3 -28 7 -50 24 -22 16 -43 26 -47 22 -3 -4 -2 5 4 20 5 14
7 29 3 34 -4 4 1 4 10 1 10 -3 20 -2 23 4 7 11 54 -14 90 -47z m28 -68 c4 -10
1 -13 -8 -9 -8 3 -12 9 -9 14 7 12 11 11 17 -5z m-773 -36 c0 -5 -4 -10 -10
-10 -5 0 -10 5 -10 10 0 6 5 10 10 10 6 0 10 -4 10 -10z m35 0 c3 -5 -1 -10
-10 -10 -9 0 -13 5 -10 10 3 6 8 10 10 10 2 0 7 -4 10 -10z m768 -16 c-10 -8
-13 -14 -8 -13 26 4 43 -2 49 -17 6 -15 4 -15 -19 0 -14 9 -25 12 -25 6 0 -5
5 -10 11 -10 5 0 8 -4 4 -9 -3 -5 0 -13 6 -17 8 -5 9 -3 4 6 -6 10 -4 11 11 5
10 -4 29 -8 41 -8 20 1 28 -10 47 -69 3 -10 0 -20 -6 -24 -6 -4 -8 -3 -4 4 3
6 2 13 -3 17 -6 3 -9 11 -7 18 1 7 1 9 -1 5 -8 -15 -19 -8 -20 12 -1 13 2 18
9 14 7 -4 8 -2 4 4 -4 6 -13 9 -21 6 -8 -4 -12 -10 -9 -15 3 -5 -1 -9 -8 -9
-8 -1 -5 -7 7 -17 l20 -16 -20 7 c-19 6 -19 5 -2 -8 20 -15 23 -36 5 -36 -9 0
-8 -3 2 -10 8 -5 11 -12 7 -16 -9 -10 -17 -1 -22 24 -2 11 -9 30 -15 41 -6 12
-7 21 -3 21 4 0 1 5 -7 11 -13 10 -13 10 1 6 9 -3 16 1 16 8 0 7 -8 10 -19 7
-10 -2 -18 1 -18 6 0 6 -9 20 -20 30 -18 17 -18 20 -4 40 8 12 20 20 25 16 6
-3 3 -12 -8 -20z m95 -135 c-2 -3 3 -13 10 -22 11 -13 10 -19 -7 -36 -12 -12
-17 -21 -12 -21 5 0 8 -15 6 -32 -4 -26 -2 -30 6 -18 9 12 9 11 4 -5 -4 -11
-8 -26 -8 -32 0 -7 -7 -13 -16 -13 -11 0 -12 3 -4 11 7 7 8 20 4 33 -9 26 -8
57 2 74 5 6 5 17 1 24 -4 7 -3 8 4 4 15 -9 15 -1 1 26 -8 15 -8 19 1 16 6 -2
10 -6 8 -9z m44 -36 c2 -33 4 -38 11 -50 5 -8 4 -13 -2 -13 -6 0 -11 6 -11 13
0 6 -5 4 -11 -6 -8 -13 -7 -22 1 -32 8 -10 8 -14 -2 -17 -8 -3 -7 -6 4 -10 16
-7 20 14 5 28 -12 13 -8 24 7 18 20 -8 17 -62 -4 -69 -9 -3 -17 -16 -18 -30
-5 -55 -7 -63 -14 -59 -4 3 -8 0 -8 -5 0 -6 4 -11 9 -11 5 0 8 -7 7 -15 -2
-17 -16 -32 -17 -19 0 5 -2 18 -4 28 -2 11 1 28 7 39 8 15 7 18 -3 12 -9 -6
-11 -3 -6 9 4 10 3 15 -3 11 -6 -3 -10 0 -10 8 0 10 7 14 23 10 12 -3 18 -1
12 4 -17 14 -17 36 0 29 11 -4 14 -2 8 6 -4 7 -8 19 -9 28 -2 8 -5 24 -7 35
-2 11 2 29 10 41 7 11 10 24 6 27 -3 4 -1 7 5 7 7 0 13 -8 14 -17z m-989 -42
c-2 -14 -4 -35 -4 -46 0 -16 -2 -17 -9 -5 -6 9 -10 10 -10 3 0 -6 5 -15 11
-19 8 -4 7 -9 -2 -15 -15 -9 -21 -59 -6 -56 5 1 12 -4 15 -12 2 -8 0 -11 -6
-7 -6 3 -4 -6 3 -21 13 -26 25 -72 27 -100 1 -7 5 -13 9 -13 14 0 20 -34 7
-42 -10 -6 -9 -8 3 -8 9 0 29 -17 45 -37 15 -21 32 -41 37 -44 5 -3 1 -9 -8
-13 -26 -9 -47 -7 -40 5 4 6 13 8 21 5 8 -3 11 0 7 9 -4 12 -14 8 -49 -16 -24
-16 -52 -29 -61 -27 -10 2 -17 -3 -15 -10 1 -6 -3 -11 -9 -10 -6 2 -13 -8 -14
-22 -2 -14 -1 -19 2 -11 5 11 7 11 15 0 8 -11 9 -10 4 3 -3 10 -1 20 5 23 5 4
6 12 3 18 -4 7 -3 8 2 4 5 -5 9 -25 9 -45 0 -25 4 -36 13 -34 8 1 11 -1 8 -6
-6 -10 43 -39 64 -37 8 1 27 3 43 3 16 1 27 8 27 17 0 7 8 18 17 24 13 7 15
12 5 23 -9 11 -9 17 0 26 9 9 8 12 -3 12 -9 0 -24 9 -34 20 -10 11 -13 20 -7
20 7 0 12 -5 12 -11 0 -5 5 -7 12 -3 7 4 8 3 4 -4 -5 -8 0 -12 13 -12 12 0 21
-7 21 -16 0 -8 4 -13 9 -9 5 3 15 0 23 -7 7 -7 20 -14 28 -16 8 -2 17 -7 20
-11 3 -4 16 -8 29 -8 13 -1 27 -7 31 -13 4 -7 10 -11 14 -11 21 3 27 -1 23
-14 -4 -8 -1 -17 5 -21 7 -4 8 -3 4 5 -5 8 0 10 18 7 15 -3 24 -1 21 5 -4 5
-10 7 -15 4 -5 -3 -12 -1 -15 5 -7 12 39 9 51 -3 4 -4 13 -2 21 4 9 9 13 8 13
0 0 -6 -5 -11 -11 -11 -5 0 -7 -5 -3 -11 4 -7 9 -7 13 -2 3 6 20 9 38 8 18 -1
30 2 27 7 -3 5 -9 6 -14 3 -5 -3 -11 -2 -14 3 -7 12 26 12 41 0 8 -6 18 -5 30
2 16 10 15 10 -4 5 -13 -4 -23 -2 -23 3 0 8 58 23 84 21 5 0 13 5 18 13 7 9 8
7 5 -10 -3 -12 -1 -20 4 -16 5 3 9 14 9 24 0 10 10 22 22 26 12 3 28 13 36 21
8 8 21 12 28 9 9 -3 11 0 7 11 -4 11 -2 14 5 9 7 -4 12 -3 12 2 0 15 53 72 67
72 7 0 10 7 6 17 -4 11 -3 14 6 9 8 -6 11 -2 9 10 -4 27 21 24 40 -4 15 -22
14 -23 -10 -17 -33 8 -43 -16 -16 -39 19 -17 19 -18 1 -31 -17 -13 -17 -14 3
-9 17 5 23 0 29 -23 5 -15 9 -31 9 -35 1 -3 4 -9 8 -13 4 -4 4 -13 2 -20 -3
-7 -1 -16 5 -20 6 -3 11 -11 11 -17 0 -6 -6 -6 -15 2 -13 11 -14 10 -9 -4 3
-9 10 -16 15 -16 5 0 9 -5 9 -11 0 -5 -4 -8 -8 -5 -5 3 -9 -1 -9 -8 0 -8 6
-12 13 -9 9 3 12 -8 9 -41 -1 -25 1 -44 5 -41 10 6 8 -15 -3 -32 -4 -6 -3 -14
3 -18 6 -4 8 -11 4 -16 -3 -5 -7 -33 -10 -62 -2 -28 -6 -59 -8 -67 -8 -37 -19
-76 -25 -85 -3 -5 -7 -18 -8 -28 -4 -23 -51 -115 -80 -154 -12 -17 -23 -36
-23 -41 0 -5 -18 -26 -40 -46 -22 -20 -37 -36 -34 -36 4 0 1 -7 -6 -15 -7 -8
-17 -12 -22 -9 -5 3 0 16 11 28 12 12 18 26 14 31 -5 4 -2 5 5 1 9 -6 11 0 7
23 -4 25 -2 31 12 31 12 0 14 -3 7 -8 -9 -5 -8 -10 2 -19 8 -8 15 -9 19 -3 3
6 1 10 -5 10 -6 0 -8 5 -4 11 4 8 9 7 16 -2 8 -11 9 -11 5 1 -2 8 -10 14 -16
13 -6 -2 -11 2 -11 8 0 5 -3 8 -8 6 -4 -3 -7 8 -7 23 -1 16 3 26 7 24 4 -3 9
0 9 5 3 26 4 30 12 37 14 15 7 -22 -10 -46 -16 -24 -16 -24 0 -11 18 15 23 3
7 -17 -6 -6 -7 -10 -4 -7 4 3 13 0 20 -6 8 -7 14 -6 20 2 5 8 3 10 -7 5 -8 -4
-5 0 5 8 15 12 16 16 5 16 -12 0 -12 2 1 9 8 6 18 7 22 5 4 -3 8 0 8 5 0 6 -5
11 -11 11 -5 0 -7 5 -3 11 4 8 9 7 15 -2 5 -8 9 -9 9 -4 0 6 -4 16 -9 23 -6
11 -10 10 -16 -5 -5 -10 -7 -22 -6 -26 1 -5 -4 -7 -10 -5 -7 2 -13 12 -15 21
-1 9 2 15 7 12 10 -7 43 24 52 48 3 9 2 17 -3 17 -6 0 -10 -8 -11 -17 0 -12
-2 -13 -6 -5 -3 7 0 19 6 26 12 14 5 46 -9 46 -4 0 -10 -7 -13 -14 -4 -10 -1
-13 9 -9 7 3 14 0 14 -6 0 -14 -15 -14 -39 -1 -13 6 -24 5 -39 -5 -20 -14 -21
-24 -9 -55 7 -20 5 -50 -3 -50 -4 0 -12 12 -18 26 -7 14 -8 23 -3 19 6 -3 9 4
8 15 -1 20 -12 27 -20 13 -2 -5 -2 -3 -1 4 2 6 -4 14 -12 17 -9 3 -12 10 -9
16 3 5 1 10 -6 10 -7 0 -4 7 7 15 14 11 15 13 3 9 -11 -3 -24 5 -39 25 -12 17
-18 31 -14 31 4 0 -1 7 -12 15 -10 8 -15 15 -10 15 5 0 -9 14 -30 31 -22 17
-39 35 -39 39 0 15 -15 24 -15 9 -1 -10 -4 -9 -11 4 -6 9 -14 15 -20 12 -5 -4
-9 -2 -9 3 0 5 -7 9 -15 10 -8 1 -22 3 -30 4 -8 1 -15 6 -15 12 0 6 -5 4 -10
-4 -8 -12 -10 -12 -10 -1 0 11 -3 11 -15 1 -12 -10 -15 -10 -16 1 0 11 -2 11
-6 1 -5 -13 -33 16 -46 48 -4 9 -6 5 -5 -10 2 -45 -2 -61 -12 -55 -6 4 -8 15
-5 26 5 14 2 19 -12 19 -10 0 -14 -4 -8 -8 22 -16 12 -40 -19 -47 -17 -4 -37
-7 -44 -6 -7 1 -11 -4 -10 -10 2 -7 -8 -18 -22 -26 -15 -8 -19 -13 -10 -14 10
0 11 -2 2 -6 -6 -2 -9 -10 -5 -16 12 -20 15 -59 3 -52 -5 3 -10 1 -10 -4 0 -6
7 -11 16 -11 8 0 12 -4 9 -10 -3 -5 -1 -10 5 -10 7 0 10 -7 7 -15 -4 -8 -1
-17 5 -21 7 -5 8 -2 3 6 -5 9 -4 11 3 6 7 -4 12 -14 12 -22 0 -8 5 -14 11 -14
5 0 8 -4 5 -9 -3 -5 2 -12 11 -15 14 -6 15 -9 4 -15 -11 -7 -9 -10 7 -15 14
-5 19 -13 17 -27 -2 -11 0 -17 5 -14 5 3 14 -3 19 -14 14 -26 14 -34 -1 -25
-7 4 -10 4 -6 -1 4 -4 2 -15 -5 -24 -11 -14 -10 -14 6 -2 18 14 17 16 22 -29
1 -8 -3 -21 -8 -27 -5 -7 -6 -13 -1 -13 4 0 -1 -7 -12 -16 -10 -8 -13 -12 -5
-9 14 8 -12 -40 -33 -60 -6 -6 -18 -24 -27 -40 -9 -18 -22 -29 -32 -27 -11 2
-15 -2 -11 -13 5 -11 2 -14 -12 -8 -10 4 -15 2 -11 -4 6 -9 1 -11 -35 -14 -7
-1 -22 2 -33 6 -14 5 -16 4 -6 -3 8 -6 10 -12 3 -16 -6 -4 -15 2 -21 11 -8 15
-10 15 -11 3 0 -9 -9 -16 -20 -17 -12 -1 -18 3 -14 9 4 5 -4 3 -17 -5 -31 -19
-83 -31 -74 -17 3 5 1 10 -4 10 -6 0 -11 -6 -11 -13 0 -8 -9 -13 -22 -11 -13
1 -32 3 -43 4 l-20 1 20 10 c17 8 16 9 -7 6 -19 -3 -28 0 -28 9 0 8 -8 14 -17
14 -15 0 -16 -2 -3 -10 8 -5 11 -10 5 -10 -5 1 -19 7 -30 16 -16 12 -18 18 -7
34 8 14 9 21 0 26 -6 4 -8 3 -4 -4 3 -6 2 -13 -3 -16 -5 -4 -13 -2 -16 4 -5 8
-12 7 -23 -2 -10 -7 -14 -9 -10 -4 3 4 0 19 -8 34 -10 19 -10 29 -2 39 8 10 7
12 -4 8 -14 -6 -58 62 -58 92 0 8 -5 11 -12 7 -8 -5 -9 -2 -5 9 4 10 1 17 -5
17 -6 0 -9 3 -5 6 3 4 0 13 -8 21 -17 16 -20 48 -5 38 6 -4 8 -11 5 -16 -4 -5
-1 -9 4 -9 18 0 12 18 -9 33 l-21 14 21 6 c11 3 20 11 19 19 0 10 -2 10 -6 1
-7 -18 -20 -16 -20 2 0 8 4 15 8 15 5 0 6 7 3 15 -4 8 -1 15 6 15 6 0 9 4 6 9
-7 10 13 72 27 86 7 7 7 5 2 -4 -5 -10 -4 -12 4 -7 6 4 9 12 5 17 -3 6 4 22
17 35 l23 25 13 -23 c13 -22 13 -22 7 6 -5 21 -4 27 5 22 7 -4 18 -3 26 4 7 6
40 13 72 15 32 2 58 4 58 5 0 8 62 5 67 -4 5 -7 8 -4 8 7 0 10 5 15 11 12 6
-4 8 -13 5 -21 -3 -7 -1 -16 4 -19 4 -3 7 7 5 21 -2 21 1 25 17 21 11 -3 17
-3 14 0 -3 3 1 12 9 19 17 17 29 18 19 2 -4 -7 -3 -8 5 -4 6 4 9 12 6 17 -4 5
2 9 12 9 11 0 14 3 7 8 -6 4 -11 18 -11 32 0 14 -5 38 -12 53 -14 35 -14 33 5
51 8 9 11 16 5 16 -5 0 -13 -5 -16 -11 -5 -6 -12 -4 -20 8 -10 14 -11 21 -2
32 10 12 9 13 -7 8 -14 -6 -17 -4 -12 9 5 12 2 15 -9 10 -9 -3 -14 -2 -12 2 2
4 -6 17 -19 30 -13 12 -24 20 -24 16 0 -3 -7 -1 -15 6 -8 7 -13 16 -10 20 3 5
0 12 -6 16 -8 4 -9 3 -5 -4 4 -7 1 -12 -9 -12 -9 0 -14 4 -10 9 3 6 -7 8 -22
7 -36 -5 -47 2 -32 20 10 12 9 13 -6 7 -15 -5 -17 -3 -12 13 7 18 6 18 -7 1
-10 -13 -15 -14 -18 -6 -3 9 -6 8 -11 -3 -4 -13 -1 -16 14 -13 10 2 19 0 19
-6 0 -5 -17 -8 -38 -7 -35 1 -39 4 -39 29 0 24 3 26 23 19 14 -6 26 -5 29 1 4
5 11 7 16 4 5 -4 10 1 10 9 1 9 2 22 3 29 1 6 -2 21 -8 32 -6 11 -9 24 -8 28
1 5 -2 6 -8 2 -6 -3 -23 -8 -38 -11 -15 -3 -31 -11 -36 -18 -8 -12 -14 -12
-35 1 -24 15 -24 14 3 -10 16 -15 26 -27 21 -27 -4 0 -2 -7 5 -15 7 -8 9 -15
5 -15 -4 0 -1 -7 6 -17 11 -13 11 -17 1 -20 -6 -3 -10 -9 -7 -13 3 -5 0 -12
-6 -16 -8 -4 -9 -3 -5 4 4 7 2 12 -3 12 -6 0 -11 -4 -11 -9 0 -5 -13 -7 -30
-6 -16 1 -30 0 -30 -4 0 -4 -9 -7 -21 -8 -14 -1 -19 3 -15 12 3 8 0 17 -7 21
-7 4 -9 4 -5 -1 9 -10 -10 -47 -21 -41 -4 3 -21 -4 -38 -14 -28 -17 -32 -17
-37 -3 -4 9 -4 18 -1 21 3 3 5 0 5 -6 0 -7 5 -12 11 -12 8 0 8 4 -1 15 -6 8
-8 20 -4 26 4 7 3 9 -4 5 -6 -3 -13 -2 -17 4 -3 5 1 10 9 10 8 0 19 -7 24 -15
15 -27 72 4 78 42 2 12 -60 46 -84 46 -6 0 -11 7 -10 15 2 8 -3 16 -10 18 -7
1 -8 0 -2 -3 8 -3 7 -9 0 -18 -9 -10 -9 -19 0 -32 8 -13 10 -13 7 -2 -3 9 1
16 9 16 18 0 18 -11 -1 -27 -8 -7 -12 -17 -9 -22 3 -5 -3 -4 -15 3 -14 10 -17
15 -8 21 9 6 9 8 -1 8 -7 0 -10 5 -6 12 4 7 3 8 -5 4 -6 -4 -9 -12 -6 -17 4
-5 0 -9 -7 -9 -9 0 -9 -3 2 -10 11 -7 12 -10 2 -10 -9 0 -11 -7 -7 -19 3 -11
-1 -26 -12 -36 -13 -13 -18 -14 -21 -5 -3 7 3 19 14 27 11 8 13 13 5 13 -11 0
-11 3 -1 15 7 8 9 15 6 15 -4 0 1 13 10 29 10 17 22 27 27 24 4 -3 8 1 6 8 -5
37 0 42 27 24 14 -9 28 -15 30 -12 3 2 -8 12 -23 22 -26 17 -26 18 -7 34 10 9
20 22 21 28 5 23 51 61 62 50 7 -7 8 -2 4 13 -5 18 -3 22 9 17 10 -3 15 0 14
11 0 10 6 17 16 17 9 0 20 4 25 9 4 5 3 6 -4 2 -7 -4 -13 -3 -13 2 0 16 13 22
26 12 9 -8 11 -6 10 5 0 9 21 33 49 53 27 20 46 31 42 25 -5 -7 -4 -13 2 -13
6 0 11 7 11 15 0 14 14 19 48 18 6 -1 12 6 12 14 0 11 7 14 25 11 13 -3 22 -2
20 2 -5 9 17 19 55 27 13 2 26 5 27 7 2 1 9 3 16 3 9 0 12 -9 10 -26z m-3
-112 c0 -5 -4 -9 -8 -9 -5 0 -9 7 -9 15 0 8 4 12 9 9 4 -3 8 -9 8 -15z m935
-86 c-2 -21 -4 -45 -4 -54 -1 -9 -8 -16 -16 -16 -11 0 -13 6 -9 21 15 45 21
85 15 92 -3 4 -1 4 5 1 6 -4 10 -24 9 -44z m-1445 -253 c0 -5 -7 -10 -16 -10
-8 0 -12 5 -9 10 3 6 10 10 16 10 5 0 9 -4 9 -10z m7 -63 c1 -27 -2 -37 -13
-37 -9 0 -12 -5 -8 -12 4 -7 3 -8 -4 -4 -7 4 -12 1 -12 -8 0 -8 -8 -20 -18
-25 -10 -5 -19 -22 -20 -38 -1 -15 -7 -30 -12 -31 -6 -2 -7 -9 -3 -15 4 -7 8
-34 9 -62 1 -27 4 -63 7 -79 4 -16 3 -25 -1 -21 -4 3 -7 12 -7 18 0 5 -7 12
-15 14 -9 3 -11 1 -5 -4 13 -11 18 -43 7 -43 -18 0 -19 41 -11 242 0 10 5 21
11 24 7 4 6 9 -2 14 -9 6 -6 11 10 20 12 7 20 8 16 2 -3 -5 1 -15 8 -21 11 -9
14 -9 12 1 -3 22 -17 39 -27 33 -5 -4 -9 1 -9 10 0 9 4 14 8 11 5 -3 19 8 33
25 30 37 43 33 46 -14z m873 -257 c0 -5 -4 -10 -10 -10 -5 0 -10 5 -10 10 0 6
5 10 10 10 6 0 10 -4 10 -10z m-947 -97 c-7 -2 -13 -12 -13 -21 0 -15 2 -15
10 -2 5 8 10 10 10 5 0 -6 -5 -16 -12 -23 -9 -9 -9 -12 0 -12 7 0 12 -4 12 -8
0 -5 -6 -9 -14 -9 -8 0 -13 8 -11 19 2 10 0 18 -6 18 -11 0 -7 22 6 32 6 4 15
7 20 7 6 0 4 -3 -2 -6z m1 -98 c-4 -8 -8 -15 -10 -15 -2 0 -4 7 -4 15 0 8 4
15 10 15 5 0 7 -7 4 -15z m1381 -165 c3 -5 1 -10 -4 -10 -6 0 -11 5 -11 10 0
6 2 10 4 10 3 0 8 -4 11 -10z m-125 -214 c-14 -13 -31 -21 -39 -18 -8 3 -12 1
-9 -4 7 -13 -26 -41 -45 -38 -9 1 -17 -3 -17 -10 0 -11 -42 -38 -62 -40 -3 -1
-10 -4 -14 -8 -4 -5 -12 -8 -18 -8 -12 0 24 27 37 28 5 0 15 9 23 19 7 10 14
14 14 9 0 -5 10 3 21 18 12 15 27 25 35 22 7 -3 16 4 19 15 4 10 10 17 14 14
5 -2 17 2 27 10 31 23 41 17 14 -9z m-900 -77 c0 -6 -4 -7 -10 -4 -5 3 -10 11
-10 16 0 6 5 7 10 4 6 -3 10 -11 10 -16z"/>
<path d="M2286 2797 c3 -10 9 -15 12 -12 3 3 0 11 -7 18 -10 9 -11 8 -5 -6z"/>
<path d="M2310 2791 c0 -6 4 -13 10 -16 6 -3 7 1 4 9 -7 18 -14 21 -14 7z"/>
<path d="M2845 2410 c-3 -5 -2 -10 4 -10 5 0 13 5 16 10 3 6 2 10 -4 10 -5 0
-13 -4 -16 -10z"/>
<path d="M1855 2411 c-3 -6 -13 -8 -23 -6 -12 2 -18 -4 -20 -18 -1 -16 1 -18
8 -8 4 8 18 16 31 18 18 3 20 1 9 -12 -7 -8 -16 -12 -21 -9 -5 3 -9 0 -9 -5 0
-16 16 -13 34 4 8 9 13 22 10 30 -7 17 -11 18 -19 6z"/>
<path d="M1750 2360 c-9 -6 -10 -10 -3 -10 6 0 15 5 18 10 8 12 4 12 -15 0z"/>
<path d="M1839 2348 c-5 -18 -6 -38 -1 -34 7 8 12 36 6 36 -2 0 -4 -1 -5 -2z"/>
<path d="M1626 2311 c9 -9 34 -9 34 -1 0 5 -9 8 -20 7 -10 -1 -17 -3 -14 -6z"/>
<path d="M1590 2280 c-9 -16 -8 -18 5 -14 8 3 13 10 10 14 -3 5 1 11 7 13 10
4 10 6 1 6 -7 1 -17 -8 -23 -19z"/>
<path d="M1530 2209 c0 -5 5 -7 10 -4 6 3 10 8 10 11 0 2 -4 4 -10 4 -5 0 -10
-5 -10 -11z"/>
<path d="M1850 2209 c0 -5 5 -7 10 -4 6 3 10 8 10 11 0 2 -4 4 -10 4 -5 0 -10
-5 -10 -11z"/>
<path d="M1455 2149 c-11 -16 -1 -19 13 -3 7 8 8 14 3 14 -5 0 -13 -5 -16 -11z"/>
<path d="M1873 2135 c0 -8 4 -15 9 -15 4 0 8 4 8 9 0 6 -4 12 -8 15 -5 3 -9
-1 -9 -9z"/>
<path d="M1441 2106 c-9 -11 -9 -16 1 -22 7 -4 10 -4 6 1 -4 4 -3 14 3 22 6 7
9 13 6 13 -2 0 -10 -6 -16 -14z"/>
<path d="M1895 2090 c3 -5 11 -10 16 -10 6 0 7 5 4 10 -3 6 -11 10 -16 10 -6
0 -7 -4 -4 -10z"/>
<path d="M1594 2076 c1 -8 5 -18 8 -22 4 -3 5 1 4 10 -1 8 -5 18 -8 22 -4 3
-5 -1 -4 -10z"/>
<path d="M1855 2079 c3 -8 21 -24 40 -37 19 -12 35 -27 35 -34 0 -6 -7 -5 -18
5 -16 15 -19 15 -30 -3 -7 -11 -12 -23 -12 -27 0 -5 5 0 11 10 5 9 15 17 21
17 6 0 5 -7 -3 -17 -10 -11 -10 -14 -1 -9 12 7 17 -6 6 -17 -11 -11 -46 14
-40 28 6 18 -27 47 -57 49 -14 0 -23 6 -19 11 3 6 -6 -2 -21 -17 -25 -27 -44
-38 -32 -19 3 5 2 12 -3 15 -4 2 -8 -15 -8 -39 0 -30 4 -41 13 -38 15 6 17 -9
3 -23 -6 -6 -2 -10 12 -11 18 -2 20 0 8 7 -13 8 -13 10 1 10 9 0 19 -3 23 -7
12 -13 48 -14 40 -1 -4 7 -3 8 5 4 6 -4 14 0 17 9 4 9 16 15 28 13 33 -4 77
28 69 50 -6 15 -5 16 12 2 18 -15 18 -14 1 13 -21 31 -28 35 -19 10 5 -14 0
-12 -24 7 -17 14 -28 30 -25 35 3 6 2 7 -3 3 -4 -4 -14 -3 -22 4 -10 8 -12 8
-8 -3z m85 -85 c0 -8 -19 -13 -24 -6 -3 5 1 9 9 9 8 0 15 -2 15 -3z"/>
<path d="M1410 2076 c0 -2 7 -7 16 -10 8 -3 12 -2 9 4 -6 10 -25 14 -25 6z"/>
<path d="M1470 2069 c0 -5 5 -7 10 -4 6 3 10 8 10 11 0 2 -4 4 -10 4 -5 0 -10
-5 -10 -11z"/>
<path d="M1515 2070 c-3 -5 -1 -10 4 -10 6 0 11 5 11 10 0 6 -2 10 -4 10 -3 0
-8 -4 -11 -10z"/>
<path d="M1821 2064 c0 -11 3 -14 6 -6 3 7 2 16 -1 19 -3 4 -6 -2 -5 -13z"/>
<path d="M1715 2060 c-3 -5 -1 -10 4 -10 6 0 11 5 11 10 0 6 -2 10 -4 10 -3 0
-8 -4 -11 -10z"/>
<path d="M1458 2048 c6 -6 18 -8 28 -6 14 3 12 5 -9 10 -19 3 -25 2 -19 -4z"/>
<path d="M1740 2051 c0 -6 4 -13 10 -16 6 -3 7 1 4 9 -7 18 -14 21 -14 7z"/>
<path d="M1530 2039 c0 -6 -4 -7 -10 -4 -5 3 -10 1 -10 -5 0 -6 -3 -9 -8 -6
-4 2 -8 -11 -8 -30 0 -22 4 -34 13 -34 7 0 13 -5 13 -11 0 -5 -4 -8 -8 -5 -4
2 -8 -4 -8 -14 0 -13 5 -16 16 -11 8 5 23 7 33 6 9 -2 17 2 17 8 0 5 3 7 6 4
4 -3 15 -2 26 4 14 8 17 14 9 23 -6 7 -9 16 -6 19 3 4 2 4 -2 1 -8 -5 -9 -9
-12 -36 -1 -10 -4 -9 -10 1 -6 9 -5 21 2 33 8 13 9 23 1 35 -12 20 -54 37 -54
22z m20 -91 c0 7 5 10 11 7 13 -9 7 -15 -19 -20 -15 -3 -19 0 -15 12 5 12 7
12 14 1 7 -10 9 -11 9 0z"/>
<path d="M1432 2031 c-11 -6 -10 -10 4 -15 9 -4 22 -2 28 4 8 8 6 9 -8 4 -13
-5 -17 -4 -12 4 8 14 6 15 -12 3z"/>
<path d="M1865 2030 c3 -5 8 -10 11 -10 2 0 4 5 4 10 0 6 -5 10 -11 10 -5 0
-7 -4 -4 -10z"/>
<path d="M1470 1999 c0 -5 5 -7 10 -4 6 3 10 8 10 11 0 2 -4 4 -10 4 -5 0 -10
-5 -10 -11z"/>
<path d="M2707 2003 c-10 -10 -8 -23 4 -23 5 0 7 5 4 10 -3 6 -2 10 3 10 18 0
21 -29 4 -33 -15 -4 -15 -5 -1 -6 9 0 23 7 30 16 8 9 9 14 3 10 -7 -4 -14 0
-18 8 -6 16 -18 19 -29 8z"/>
<path d="M1647 1946 c-4 -10 -1 -13 9 -9 15 6 19 23 5 23 -5 0 -11 -7 -14 -14z"/>
<path d="M2740 1936 c0 -2 11 -6 25 -8 13 -3 22 -1 19 3 -5 9 -44 13 -44 5z"/>
<path d="M1465 1919 c-4 -6 -5 -12 -2 -15 2 -3 7 2 10 11 7 17 1 20 -8 4z"/>
<path d="M2616 1912 c-3 -5 1 -9 9 -9 8 0 12 4 9 9 -3 4 -7 8 -9 8 -2 0 -6 -4
-9 -8z"/>
<path d="M1410 1896 c4 -4 16 -4 26 2 16 9 14 10 -8 9 -15 -1 -23 -6 -18 -11z"/>
<path d="M2775 1900 c-3 -6 1 -7 9 -4 18 7 21 14 7 14 -6 0 -13 -4 -16 -10z"/>
<path d="M2057 1893 c7 -2 15 -3 17 -1 3 2 12 -6 21 -17 16 -20 16 -20 6 0 -5
11 -20 21 -33 22 -13 0 -17 -1 -11 -4z"/>
<path d="M2120 1866 c0 -8 4 -17 9 -20 5 -4 7 3 4 14 -6 23 -13 26 -13 6z"/>
<path d="M2073 1845 c0 -8 4 -12 9 -9 4 3 8 9 8 15 0 5 -4 9 -8 9 -5 0 -9 -7
-9 -15z"/>
<path d="M2190 1835 c0 -8 4 -15 10 -15 5 0 7 7 4 15 -4 8 -8 15 -10 15 -2 0
-4 -7 -4 -15z"/>
<path d="M2222 1835 c4 -4 3 -14 -4 -22 -6 -7 -8 -16 -5 -19 3 -3 10 3 16 15
8 15 8 22 -1 27 -7 4 -10 4 -6 -1z"/>
<path d="M2302 1821 c3 -12 -3 -15 -49 -24 -9 -2 -19 -9 -21 -15 -2 -7 -8 -10
-13 -7 -5 4 -6 -1 -3 -9 3 -8 -2 -16 -13 -19 -12 -3 -13 -5 -3 -6 8 -1 25 -23
37 -49 20 -44 24 -48 55 -47 18 1 45 -4 61 -12 15 -7 27 -11 27 -8 0 3 10 0
23 -7 12 -7 28 -11 35 -10 11 3 17 -11 13 -31 -1 -5 3 -6 8 -3 5 3 12 -1 15
-10 4 -9 9 -14 13 -10 7 7 39 -35 35 -47 -1 -5 2 -6 8 -2 6 3 8 10 5 15 -7 12
23 6 36 -7 6 -6 18 -9 27 -5 12 4 14 1 8 -14 -4 -10 -9 -24 -10 -31 -1 -7 -6
-16 -11 -20 -4 -4 -5 -3 -1 4 3 6 1 15 -4 18 -7 5 -5 12 7 20 16 13 16 13 -9
11 -20 -2 -25 0 -21 13 4 9 3 13 -1 9 -25 -22 9 -93 39 -82 7 3 15 -2 18 -10
4 -9 15 -13 27 -11 11 2 18 0 15 -5 -6 -9 -24 -8 -42 3 -7 5 -13 7 -14 5 -6
-26 -6 -38 2 -38 5 0 9 5 9 11 0 5 5 7 10 4 6 -4 7 -12 3 -18 -4 -6 6 -2 21
11 16 12 32 20 36 17 4 -3 10 2 13 10 4 10 1 12 -11 9 -11 -4 -8 2 8 16 14 12
20 19 15 17 -6 -3 -18 8 -28 25 -13 22 -14 29 -4 25 8 -3 14 1 14 8 0 11 -5
12 -21 2 -31 -17 -46 -17 -46 -1 0 9 5 12 11 8 6 -3 15 0 20 7 13 21 11 29 -7
29 -14 0 -15 2 -3 17 8 9 9 14 3 10 -7 -4 -14 0 -18 8 -3 8 -12 15 -21 15 -8
0 -15 7 -15 15 0 8 -5 15 -12 15 -6 0 -8 -3 -5 -7 8 -7 -34 -39 -46 -35 -5 1
-5 -3 -1 -10 13 -20 15 -46 4 -53 -6 -3 -7 2 -4 12 4 13 3 15 -4 5 -7 -11 -10
-11 -15 3 -4 9 -3 14 2 11 5 -4 7 3 4 15 -3 12 -1 24 5 28 5 3 12 15 14 26 1
11 8 23 13 27 6 5 5 8 -2 8 -7 0 -13 6 -13 14 0 8 -7 17 -16 20 -8 3 -13 9
-11 13 3 5 -6 8 -19 8 -13 0 -24 -3 -24 -7 0 -5 -4 -8 -10 -8 -5 0 -6 7 -3 17
4 11 3 14 -5 9 -7 -4 -12 -16 -12 -27 0 -11 -5 -17 -10 -14 -6 4 -7 12 -3 18
4 7 0 6 -10 -2 -18 -15 -23 -26 -7 -16 10 6 12 2 13 -32 1 -10 5 -21 10 -24 5
-4 8 -12 5 -19 -2 -8 -11 -2 -22 15 -10 15 -14 25 -9 22 5 -4 10 0 10 8 0 8
-5 11 -11 7 -6 -4 -15 -7 -21 -7 -5 -1 -9 -6 -7 -13 1 -7 -2 -12 -8 -12 -16 0
-12 18 8 32 12 9 17 24 16 48 -3 49 -3 50 -13 48 -6 -2 -24 13 -40 32 -17 19
-30 29 -29 21z m87 -174 c8 -10 7 -14 -2 -14 -8 0 -14 6 -14 14 0 7 1 13 2 13
2 0 8 -6 14 -13z m104 -61 c-6 -23 -9 -24 -20 -7 -10 16 -9 19 5 17 9 -2 16
-6 15 -10z m74 -103 c-4 -3 -1 -13 6 -22 11 -14 10 -14 -5 -2 -16 12 -16 31
-1 31 4 0 3 -3 0 -7z"/>
<path d="M2035 1810 c-3 -5 -1 -10 4 -10 6 0 11 5 11 10 0 6 -2 10 -4 10 -3 0
-8 -4 -11 -10z"/>
<path d="M1944 1796 c-3 -9 -11 -13 -17 -9 -6 4 -7 1 -2 -7 6 -10 11 -9 21 4
9 13 13 14 17 4 4 -9 6 -9 6 -1 1 19 -19 26 -25 9z"/>
<path d="M2350 1788 c0 -4 16 -6 34 -3 28 3 34 1 29 -10 -3 -8 -10 -12 -17 -8
-6 4 -5 -1 3 -10 11 -13 11 -17 1 -17 -8 0 -11 -3 -7 -6 3 -3 14 -1 24 5 10 6
12 11 5 11 -10 0 -10 5 -2 20 6 11 9 21 8 21 -13 6 -78 4 -78 -3z"/>
<path d="M2440 1770 c-9 -6 -10 -10 -3 -10 6 0 15 5 18 10 8 12 4 12 -15 0z"/>
<path d="M2516 1757 c3 -10 9 -15 12 -12 3 3 0 11 -7 18 -10 9 -11 8 -5 -6z"/>
<path d="M1999 1743 c-13 -16 -12 -17 4 -4 9 7 17 15 17 17 0 8 -8 3 -21 -13z"/>
<path d="M2810 1750 c0 -5 5 -10 10 -10 6 0 10 5 10 10 0 6 -4 10 -10 10 -5 0
-10 -4 -10 -10z"/>
<path d="M1960 1730 c-9 -6 -10 -10 -3 -10 6 0 15 5 18 10 8 12 4 12 -15 0z"/>
<path d="M2193 1714 c4 -4 2 -12 -3 -19 -7 -8 -5 -12 5 -12 8 0 12 4 9 8 -2 4
1 9 8 11 7 3 4 7 -7 12 -11 4 -16 4 -12 0z"/>
<path d="M2556 1655 c-9 -14 -14 -25 -10 -25 4 0 0 -8 -7 -17 -13 -16 -12 -17
3 -5 10 8 17 17 16 20 -1 4 3 17 10 30 17 30 8 28 -12 -3z"/>
<path d="M2790 1646 c7 -7 13 -7 20 0 6 6 3 10 -10 10 -13 0 -16 -4 -10 -10z"/>
<path d="M2160 1641 c0 -6 4 -13 10 -16 6 -3 7 1 4 9 -7 18 -14 21 -14 7z"/>
<path d="M2115 1631 c-3 -5 -2 -12 3 -15 5 -3 9 1 9 9 0 17 -3 19 -12 6z"/>
<path d="M2606 1632 c-3 -5 1 -9 9 -9 8 0 12 4 9 9 -3 4 -7 8 -9 8 -2 0 -6 -4
-9 -8z"/>
<path d="M2790 1627 c0 -2 6 -10 14 -16 11 -9 16 -9 22 1 4 7 4 10 -1 6 -4 -4
-14 -3 -22 3 -7 6 -13 9 -13 6z"/>
<path d="M2797 1529 c7 -7 15 -10 18 -7 3 3 -2 9 -12 12 -14 6 -15 5 -6 -5z"/>
<path d="M1695 1520 c-3 -5 -13 -6 -23 -3 -9 3 -14 3 -11 -1 13 -14 46 -14 46
0 0 16 -4 18 -12 4z"/>
<path d="M1730 1527 c0 -2 6 -10 14 -16 11 -9 16 -9 22 1 4 7 4 10 -1 6 -4 -4
-14 -3 -22 3 -7 6 -13 9 -13 6z"/>
<path d="M1586 1492 c-3 -5 1 -9 9 -9 8 0 12 4 9 9 -3 4 -7 8 -9 8 -2 0 -6 -4
-9 -8z"/>
<path d="M2055 1490 c-3 -6 1 -7 9 -4 18 7 21 14 7 14 -6 0 -13 -4 -16 -10z"/>
<path d="M1554 1418 c-19 -23 -19 -23 2 -5 11 9 24 14 29 10 4 -5 5 -2 1 5 -9
16 -10 16 -32 -10z"/>
<path d="M2740 1430 c0 -5 5 -10 11 -10 5 0 7 5 4 10 -3 6 -8 10 -11 10 -2 0
-4 -4 -4 -10z"/>
<path d="M2770 1430 c0 -5 5 -10 10 -10 6 0 10 5 10 10 0 6 -4 10 -10 10 -5 0
-10 -4 -10 -10z"/>
<path d="M2758 1403 c10 -4 10 -8 1 -19 -9 -11 -8 -14 2 -14 11 0 11 -2 -1
-10 -8 -5 -11 -10 -7 -10 4 0 3 -9 -3 -20 -6 -11 -8 -20 -6 -20 10 0 33 55 29
68 -3 6 1 12 9 12 10 0 9 3 -2 10 -8 5 -19 9 -25 9 -5 0 -4 -3 3 -6z"/>
<path d="M2133 1321 c0 -11 5 -18 9 -15 4 3 5 11 1 19 -7 21 -12 19 -10 -4z"/>
<path d="M2210 1201 c0 -7 -4 -9 -10 -6 -6 4 -7 -1 -3 -11 6 -15 7 -15 15 1 6
9 7 19 4 22 -3 4 -6 1 -6 -6z"/>
<path d="M1564 1169 c-3 -6 -1 -16 5 -22 9 -9 10 -7 5 7 -6 15 -4 17 6 11 9
-5 11 -4 6 3 -9 15 -13 15 -22 1z"/>
<path d="M1585 1130 c-3 -6 1 -7 9 -4 18 7 21 14 7 14 -6 0 -13 -4 -16 -10z"/>
<path d="M2135 1090 c-3 -5 -1 -10 4 -10 6 0 11 5 11 10 0 6 -2 10 -4 10 -3 0
-8 -4 -11 -10z"/>
<path d="M1627 1039 c6 -22 20 -26 20 -4 0 8 -6 16 -13 19 -7 3 -10 -2 -7 -15z"/>
<path d="M2055 1010 c-3 -5 -1 -10 4 -10 6 0 11 5 11 10 0 6 -2 10 -4 10 -3 0
-8 -4 -11 -10z"/>
<path d="M2108 1013 c7 -3 16 -2 19 1 4 3 -2 6 -13 5 -11 0 -14 -3 -6 -6z"/>
<path d="M2035 980 c-3 -6 1 -7 9 -4 18 7 21 14 7 14 -6 0 -13 -4 -16 -10z"/>
<path d="M1856 948 c3 -4 12 -8 20 -8 8 0 14 4 14 8 0 4 -9 8 -19 8 -11 0 -17
-4 -15 -8z"/>
<path d="M1332 1883 c-6 -11 -7 -25 -2 -33 7 -12 10 -12 16 3 3 9 11 14 18 10
6 -4 4 2 -4 13 -8 10 -15 21 -16 22 -1 2 -7 -5 -12 -15z"/>
<path d="M1294 1823 c3 -6 2 -14 -3 -18 -5 -3 -9 -14 -8 -25 1 -10 5 -16 9
-14 5 3 5 10 2 16 -4 6 0 14 7 19 12 7 12 10 0 21 -9 8 -11 9 -7 1z"/>
<path d="M1270 1710 c0 -5 5 -10 11 -10 5 0 7 5 4 10 -3 6 -8 10 -11 10 -2 0
-4 -4 -4 -10z"/>
<path d="M1270 1630 c0 -5 5 -10 10 -10 6 0 10 5 10 10 0 6 -4 10 -10 10 -5 0
-10 -4 -10 -10z"/>
<path d="M2465 1010 c-3 -6 1 -7 9 -4 18 7 21 14 7 14 -6 0 -13 -4 -16 -10z"/>
<path d="M2760 4150 c-8 -5 -10 -10 -5 -10 6 0 17 5 25 10 8 5 11 10 5 10 -5
0 -17 -5 -25 -10z"/>
<path d="M2353 4095 c0 -8 4 -12 9 -9 5 3 6 10 3 15 -9 13 -12 11 -12 -6z"/>
<path d="M2880 4106 c0 -2 7 -7 16 -10 8 -3 12 -2 9 4 -6 10 -25 14 -25 6z"/>
<path d="M2306 4072 c-3 -5 1 -9 9 -9 8 0 15 4 15 9 0 4 -4 8 -9 8 -6 0 -12
-4 -15 -8z"/>
<path d="M2947 4069 c7 -7 15 -10 18 -7 3 3 -2 9 -12 12 -14 6 -15 5 -6 -5z"/>
<path d="M3004 4012 c4 -3 14 -7 22 -8 9 -1 13 0 10 4 -4 3 -14 7 -22 8 -9 1
-13 0 -10 -4z"/>
<path d="M2173 3959 c-2 -23 3 -25 10 -4 4 8 3 16 -1 19 -4 3 -9 -4 -9 -15z"/>
<path d="M3093 3955 c0 -8 4 -12 9 -9 5 3 6 10 3 15 -9 13 -12 11 -12 -6z"/>
<path d="M2173 3915 c0 -8 4 -12 9 -9 5 3 6 10 3 15 -9 13 -12 11 -12 -6z"/>
<path d="M3102 3910 c0 -14 2 -19 5 -12 2 6 2 18 0 25 -3 6 -5 1 -5 -13z"/>
<path d="M2129 3873 c-13 -16 -12 -17 4 -4 9 7 17 15 17 17 0 8 -8 3 -21 -13z"/>
<path d="M2109 3833 c-13 -17 -13 -17 6 -3 11 8 22 16 24 17 2 2 0 3 -6 3 -6
0 -17 -8 -24 -17z"/>
<path d="M3153 3830 c-1 -11 2 -22 6 -24 4 -3 7 4 6 14 -2 27 -10 33 -12 10z"/>
<path d="M3176 3763 c-6 -14 -5 -15 5 -6 7 7 10 15 7 18 -3 3 -9 -2 -12 -12z"/>
<path d="M2093 3745 c0 -8 4 -12 9 -9 5 3 6 10 3 15 -9 13 -12 11 -12 -6z"/>
<path d="M3190 3729 c0 -5 5 -7 10 -4 6 3 10 8 10 11 0 2 -4 4 -10 4 -5 0 -10
-5 -10 -11z"/>
<path d="M3190 3661 c0 -9 30 -24 36 -18 2 1 -6 8 -16 15 -11 7 -20 8 -20 3z"/>
<path d="M2073 3580 c1 -11 5 -20 9 -20 3 0 6 9 5 20 -1 11 -5 20 -9 20 -3 0
-6 -9 -5 -20z"/>
<path d="M3190 3570 c0 -5 7 -7 15 -4 8 4 15 8 15 10 0 2 -7 4 -15 4 -8 0 -15
-4 -15 -10z"/>
<path d="M3196 3505 c-11 -8 -15 -15 -9 -15 7 0 15 5 18 10 4 6 11 7 17 4 7
-4 8 -2 4 4 -9 14 -7 15 -30 -3z"/>
<path d="M3175 3449 c-4 -6 -5 -12 -2 -15 2 -3 7 2 10 11 7 17 1 20 -8 4z"/>
<path d="M3166 3372 c-3 -5 1 -9 9 -9 8 0 12 4 9 9 -3 4 -7 8 -9 8 -2 0 -6 -4
-9 -8z"/>
<path d="M2109 3353 c-13 -16 -12 -17 4 -4 9 7 17 15 17 17 0 8 -8 3 -21 -13z"/>
<path d="M2130 3327 c0 -2 6 -10 14 -16 11 -9 16 -9 22 1 4 7 4 10 -1 6 -4 -4
-14 -3 -22 3 -7 6 -13 9 -13 6z"/>
<path d="M3106 3312 c-3 -5 1 -9 9 -9 8 0 12 4 9 9 -3 4 -7 8 -9 8 -2 0 -6 -4
-9 -8z"/>
<path d="M2116 3291 c-3 -5 1 -14 8 -20 10 -9 16 -9 21 -1 4 6 4 14 1 17 -3 4
-6 1 -6 -6 0 -7 -5 -9 -10 -6 -6 4 -8 11 -5 16 4 5 4 9 1 9 -3 0 -7 -4 -10 -9z"/>
<path d="M3090 3280 c-9 -6 -10 -10 -3 -10 6 0 15 5 18 10 8 12 4 12 -15 0z"/>
<path d="M2183 3266 c5 -14 3 -16 -12 -11 -12 4 -21 0 -25 -11 -5 -14 -4 -15
9 -4 12 10 15 10 15 -1 0 -10 3 -10 12 -1 15 15 31 16 22 0 -4 -7 -3 -8 4 -4
15 9 16 8 -10 30 -18 16 -20 16 -15 2z"/>
<path d="M2050 3250 c0 -5 5 -10 11 -10 5 0 7 5 4 10 -3 6 -8 10 -11 10 -2 0
-4 -4 -4 -10z"/>
<path d="M3090 3249 c0 -5 5 -7 10 -4 6 3 10 8 10 11 0 2 -4 4 -10 4 -5 0 -10
-5 -10 -11z"/>
<path d="M1914 3232 c3 -6 0 -12 -6 -15 -7 -2 -1 -4 14 -3 34 1 34 2 7 17 -13
6 -19 7 -15 1z"/>
<path d="M3056 3223 c-6 -14 -5 -15 5 -6 7 7 10 15 7 18 -3 3 -9 -2 -12 -12z"/>
<path d="M1715 3191 c4 -8 2 -17 -6 -22 -9 -6 -10 -9 -2 -9 19 0 27 21 13 33
-10 9 -11 9 -5 -2z"/>
<path d="M1536 3128 c2 -4 14 -5 26 -3 32 7 32 13 -1 11 -16 0 -27 -4 -25 -8z"/>
<path d="M2920 3121 c-7 -15 -7 -22 2 -27 7 -4 10 -4 6 1 -4 4 -3 16 3 26 5
11 7 19 5 19 -3 0 -10 -9 -16 -19z"/>
<path d="M1509 3093 c-13 -16 -12 -17 4 -4 16 13 21 21 13 21 -2 0 -10 -8 -17
-17z"/>
<path d="M2860 3085 c-7 -8 -11 -15 -9 -16 38 -7 49 -7 55 2 3 6 1 16 -6 22
-10 9 -12 8 -6 -6 4 -13 2 -17 -6 -14 -7 2 -12 10 -10 16 3 15 -3 14 -18 -4z"/>
<path d="M2905 3049 c-4 -6 -5 -12 -2 -15 2 -3 7 2 10 11 7 17 1 20 -8 4z"/>
<path d="M2966 3032 c-3 -5 1 -9 9 -9 8 0 12 4 9 9 -3 4 -7 8 -9 8 -2 0 -6 -4
-9 -8z"/>
<path d="M1336 2993 c-6 -14 -5 -15 5 -6 7 7 10 15 7 18 -3 3 -9 -2 -12 -12z"/>
<path d="M3000 2986 c0 -2 7 -7 16 -10 8 -3 12 -2 9 4 -6 10 -25 14 -25 6z"/>
<path d="M3054 2969 c-10 -17 9 -30 26 -18 12 9 12 10 -4 5 -13 -5 -17 -2 -12
9 6 17 0 20 -10 4z"/>
<path d="M3246 2791 c-3 -5 1 -11 9 -14 9 -4 12 -1 8 9 -6 16 -10 17 -17 5z"/>
<path d="M995 2711 c-6 -11 13 -26 22 -17 4 3 1 6 -6 6 -7 0 -9 5 -6 10 3 6 4
10 1 10 -3 0 -7 -4 -11 -9z"/>
<path d="M3320 2710 c-13 -8 -12 -10 3 -10 9 0 17 5 17 10 0 12 -1 12 -20 0z"/>
<path d="M950 2671 c0 -6 4 -13 10 -16 6 -3 7 1 4 9 -7 18 -14 21 -14 7z"/>
<path d="M976 2668 c3 -4 9 -8 15 -8 5 0 9 4 9 8 0 5 -7 9 -15 9 -8 0 -12 -4
-9 -9z"/>
<path d="M3366 2667 c3 -10 9 -15 12 -12 3 3 0 11 -7 18 -10 9 -11 8 -5 -6z"/>
<path d="M3386 2608 c3 -5 10 -6 15 -3 13 9 11 12 -6 12 -8 0 -12 -4 -9 -9z"/>
<path d="M1876 2584 c-4 -9 -4 -19 -1 -22 2 -3 7 3 11 12 4 9 4 19 1 22 -2 3
-7 -3 -11 -12z"/>
<path d="M3433 2562 c0 -10 7 -19 14 -19 9 0 10 4 3 12 -5 7 -7 15 -3 18 3 4
1 7 -5 7 -6 0 -10 -8 -9 -18z"/>
<path d="M1853 2550 c1 -14 8 -24 15 -22 17 3 15 -18 -3 -24 -8 -4 -15 -10
-15 -15 0 -5 9 -4 20 3 20 13 24 40 5 38 -5 -1 -13 9 -17 22 -7 22 -7 22 -5
-2z"/>
<path d="M846 2552 c-3 -5 1 -9 9 -9 8 0 12 4 9 9 -3 4 -7 8 -9 8 -2 0 -6 -4
-9 -8z"/>
<path d="M1770 2550 c0 -5 5 -10 10 -10 6 0 10 5 10 10 0 6 -4 10 -10 10 -5 0
-10 -4 -10 -10z"/>
<path d="M1670 2530 c0 -5 5 -10 10 -10 6 0 10 5 10 10 0 6 -4 10 -10 10 -5 0
-10 -4 -10 -10z"/>
<path d="M1796 2532 c-2 -4 2 -15 9 -25 12 -16 13 -16 19 -1 4 9 4 19 1 22 -3
3 -5 0 -5 -7 0 -7 -5 -9 -10 -6 -6 4 -8 11 -5 16 4 5 4 9 1 9 -3 0 -7 -3 -10
-8z"/>
<path d="M1586 2514 c-3 -9 -2 -12 5 -9 5 4 17 1 26 -7 15 -12 15 -11 2 10
-16 26 -25 28 -33 6z"/>
<path d="M1759 2503 c-1 -5 -1 -12 0 -17 1 -5 -5 -6 -14 -2 -10 3 -14 2 -10
-5 9 -14 28 -6 31 14 1 9 0 17 -2 17 -2 0 -5 -3 -5 -7z"/>
<path d="M834 2478 l-19 -23 23 19 c21 18 27 26 19 26 -2 0 -12 -10 -23 -22z"/>
<path d="M1510 2490 c0 -5 5 -10 10 -10 6 0 10 5 10 10 0 6 -4 10 -10 10 -5 0
-10 -4 -10 -10z"/>
<path d="M1636 2485 c-9 -26 -7 -32 5 -12 6 10 9 21 6 23 -2 3 -7 -2 -11 -11z"/>
<path d="M1700 2485 c0 -5 5 -17 10 -25 5 -8 10 -10 10 -5 0 6 -5 17 -10 25
-5 8 -10 11 -10 5z"/>
<path d="M3514 2462 c3 -5 0 -13 -6 -15 -9 -4 -10 -6 -1 -6 17 -1 25 16 12 25
-7 4 -9 3 -5 -4z"/>
<path d="M821 2434 c0 -11 3 -14 6 -6 3 7 2 16 -1 19 -3 4 -6 -2 -5 -13z"/>
<path d="M1428 2443 c7 -3 16 -2 19 1 4 3 -2 6 -13 5 -11 0 -14 -3 -6 -6z"/>
<path d="M1596 2437 c3 -10 9 -15 12 -12 3 3 0 11 -7 18 -10 9 -11 8 -5 -6z"/>
<path d="M1620 2446 c0 -2 7 -7 16 -10 8 -3 12 -2 9 4 -6 10 -25 14 -25 6z"/>
<path d="M1490 2428 c0 -6 3 -8 7 -5 3 4 12 2 20 -5 7 -6 16 -8 20 -4 3 3 1 6
-6 6 -7 0 -10 4 -7 8 2 4 -4 9 -15 9 -10 1 -19 -3 -19 -9z"/>
<path d="M1547 2429 c7 -7 15 -10 18 -7 3 3 -2 9 -12 12 -14 6 -15 5 -6 -5z"/>
<path d="M1344 2393 c-14 -23 -15 -26 -1 -15 9 8 21 11 26 8 5 -4 13 -2 16 4
4 6 3 10 -2 9 -20 -3 -27 2 -13 11 8 5 10 10 4 10 -7 0 -20 -12 -30 -27z"/>
<path d="M1467 2399 c6 -23 9 -24 16 -5 3 8 0 17 -7 19 -10 4 -12 -1 -9 -14z"/>
<path d="M776 2383 c-6 -14 -5 -15 5 -6 7 7 10 15 7 18 -3 3 -9 -2 -12 -12z"/>
<path d="M1280 2382 c-18 -14 -19 -19 -7 -19 9 0 13 5 10 10 -4 6 0 8 9 5 9
-4 15 0 15 8 0 18 0 18 -27 -4z"/>
<path d="M1235 2351 c-6 -11 13 -26 22 -17 4 3 1 6 -6 6 -7 0 -9 5 -6 10 3 6
4 10 1 10 -3 0 -7 -4 -11 -9z"/>
<path d="M1315 2350 c3 -5 8 -10 11 -10 2 0 4 5 4 10 0 6 -5 10 -11 10 -5 0
-7 -4 -4 -10z"/>
<path d="M1397 2343 c3 -7 6 -13 8 -13 2 0 5 6 8 13 3 8 -1 14 -8 14 -7 0 -11
-6 -8 -14z"/>
<path d="M1340 2321 c0 -6 4 -13 10 -16 6 -3 7 1 4 9 -7 18 -14 21 -14 7z"/>
<path d="M1190 2306 c0 -2 9 -6 20 -9 11 -3 18 -1 14 4 -5 9 -34 13 -34 5z"/>
<path d="M1266 2288 c3 -5 10 -6 15 -3 13 9 11 12 -6 12 -8 0 -12 -4 -9 -9z"/>
<path d="M3586 2272 c-3 -5 1 -9 9 -9 8 0 15 4 15 9 0 4 -4 8 -9 8 -6 0 -12
-4 -15 -8z"/>
<path d="M1255 2261 c-3 -5 -2 -12 3 -15 5 -3 9 1 9 9 0 17 -3 19 -12 6z"/>
<path d="M1216 2236 c7 -19 20 -21 30 -3 4 6 4 9 -1 5 -4 -4 -14 -3 -22 4 -11
8 -12 7 -7 -6z"/>
<path d="M1114 2232 c8 -7 66 -10 70 -3 2 3 -13 7 -35 7 -22 1 -37 -1 -35 -4z"/>
<path d="M1095 2210 c-3 -6 1 -7 9 -4 18 7 21 14 7 14 -6 0 -13 -4 -16 -10z"/>
<path d="M1136 2197 c3 -10 9 -15 12 -12 3 3 0 11 -7 18 -10 9 -11 8 -5 -6z"/>
<path d="M687 2189 c7 -7 15 -10 18 -7 3 3 -2 9 -12 12 -14 6 -15 5 -6 -5z"/>
<path d="M1106 2192 c-3 -5 1 -9 9 -9 8 0 12 4 9 9 -3 4 -7 8 -9 8 -2 0 -6 -4
-9 -8z"/>
<path d="M1046 2161 c-19 -7 -19 -8 0 -13 13 -3 21 0 21 8 0 8 -1 14 -1 13 -1
0 -10 -4 -20 -8z"/>
<path d="M3631 2114 c0 -11 3 -14 6 -6 3 7 2 16 -1 19 -3 4 -6 -2 -5 -13z"/>
<path d="M995 2104 c-10 -8 -14 -14 -8 -14 7 0 14 4 18 9 3 6 15 8 27 6 11 -3
18 -1 14 2 -12 12 -32 11 -51 -3z"/>
<path d="M3646 2075 c-9 -26 -7 -32 5 -12 6 10 9 21 6 23 -2 3 -7 -2 -11 -11z"/>
<path d="M970 2076 c0 -2 7 -7 16 -10 8 -3 12 -2 9 4 -6 10 -25 14 -25 6z"/>
<path d="M1080 2070 c-9 -6 -10 -10 -3 -10 6 0 15 5 18 10 8 12 4 12 -15 0z"/>
<path d="M656 2048 c3 -4 11 -5 19 -1 21 7 19 12 -4 10 -11 0 -18 -5 -15 -9z"/>
<path d="M963 2036 c-21 -12 -21 -12 -1 -25 12 -8 17 -8 13 -1 -4 6 -1 17 5
25 14 17 13 17 -17 1z"/>
<path d="M1014 2036 c1 -8 5 -18 8 -22 4 -3 5 1 4 10 -1 8 -5 18 -8 22 -4 3
-5 -1 -4 -10z"/>
<path d="M2870 2043 c0 -6 8 -17 18 -24 16 -13 16 -13 2 6 -8 11 -16 22 -17
24 -2 2 -3 0 -3 -6z"/>
<path d="M3670 2031 c0 -6 4 -13 10 -16 6 -3 7 1 4 9 -7 18 -14 21 -14 7z"/>
<path d="M656 1984 c-5 -14 -4 -15 9 -4 17 14 19 20 6 20 -5 0 -12 -7 -15 -16z"/>
<path d="M944 1982 c0 -19 19 -24 31 -9 3 4 2 5 -2 2 -3 -3 -11 2 -17 11 -10
13 -12 13 -12 -4z"/>
<path d="M2830 1980 c0 -5 5 -10 11 -10 5 0 7 5 4 10 -3 6 -8 10 -11 10 -2 0
-4 -4 -4 -10z"/>
<path d="M1010 1970 c0 -5 5 -10 11 -10 5 0 7 5 4 10 -3 6 -8 10 -11 10 -2 0
-4 -4 -4 -10z"/>
<path d="M985 1949 c-4 -6 -4 -13 -1 -16 3 -4 6 -1 6 6 0 7 5 9 12 5 7 -4 8
-3 4 4 -9 15 -13 15 -21 1z"/>
<path d="M2850 1950 c0 -5 5 -10 10 -10 6 0 10 5 10 10 0 6 -4 10 -10 10 -5 0
-10 -4 -10 -10z"/>
<path d="M2914 1948 c-4 -7 -4 -10 1 -6 4 4 14 0 22 -10 13 -15 13 -15 3 6
-12 25 -16 27 -26 10z"/>
<path d="M959 1948 c-5 -18 -6 -38 -1 -34 7 8 12 36 6 36 -2 0 -4 -1 -5 -2z"/>
<path d="M895 1929 c-4 -5 2 -6 12 -2 16 6 17 5 3 -13 -14 -19 -14 -19 8 0 12
11 22 20 22 20 0 7 -41 3 -45 -5z"/>
<path d="M2875 1921 c3 -5 -1 -12 -7 -14 -10 -4 -10 -6 0 -6 7 -1 10 -6 6 -13
-4 -7 -3 -8 5 -4 6 4 9 11 6 16 -3 4 0 10 7 12 7 3 5 7 -6 11 -9 4 -15 3 -11
-2z"/>
<path d="M2917 1909 c4 -13 8 -18 11 -10 2 7 -1 18 -6 23 -8 8 -9 4 -5 -13z"/>
<path d="M895 1880 c-3 -5 -12 -7 -20 -3 -8 3 -15 1 -15 -5 0 -13 27 -9 42 6
7 7 9 12 6 12 -4 0 -9 -4 -13 -10z"/>
<path d="M2885 1870 c-3 -6 1 -7 9 -4 18 7 21 14 7 14 -6 0 -13 -4 -16 -10z"/>
<path d="M2910 1859 l-25 -20 25 12 c14 7 28 12 33 11 4 -1 7 3 7 8 0 15 -12
12 -40 -11z"/>
<path d="M635 1850 c-3 -5 -1 -10 4 -10 6 0 11 5 11 10 0 6 -2 10 -4 10 -3 0
-8 -4 -11 -10z"/>
<path d="M2950 1840 c0 -5 7 -7 15 -4 8 4 15 8 15 10 0 2 -7 4 -15 4 -8 0 -15
-4 -15 -10z"/>
<path d="M877 1823 c-10 -9 -9 -23 1 -23 5 0 9 7 9 15 0 17 -1 18 -10 8z"/>
<path d="M905 1810 c-3 -6 1 -7 9 -4 18 7 21 14 7 14 -6 0 -13 -4 -16 -10z"/>
<path d="M2913 1813 c4 -3 1 -13 -6 -21 -8 -11 -8 -14 0 -9 6 4 13 1 16 -5 2
-7 4 -1 4 15 0 15 -4 27 -10 27 -6 0 -7 -3 -4 -7z"/>
<path d="M3687 1813 c-10 -9 -9 -33 1 -33 4 0 8 9 8 20 0 23 0 22 -9 13z"/>
<path d="M2960 1795 c0 -8 4 -15 10 -15 5 0 7 7 4 15 -4 8 -8 15 -10 15 -2 0
-4 -7 -4 -15z"/>
<path d="M869 1773 c-13 -16 -12 -17 4 -4 9 7 17 15 17 17 0 8 -8 3 -21 -13z"/>
<path d="M2990 1770 c0 -5 5 -10 11 -10 5 0 7 5 4 10 -3 6 -8 10 -11 10 -2 0
-4 -4 -4 -10z"/>
<path d="M891 1757 c-8 -10 -7 -14 2 -14 8 0 14 6 14 14 0 7 -1 13 -2 13 -2 0
-8 -6 -14 -13z"/>
<path d="M640 1745 c-7 -9 -8 -15 -2 -15 5 0 12 7 16 15 3 8 4 15 2 15 -2 0
-9 -7 -16 -15z"/>
<path d="M2930 1750 c0 -5 5 -10 10 -10 6 0 10 5 10 10 0 6 -4 10 -10 10 -5 0
-10 -4 -10 -10z"/>
<path d="M811 1743 c-2 -20 16 -24 30 -5 13 15 12 16 -3 4 -13 -10 -17 -10
-21 0 -4 9 -6 9 -6 1z"/>
<path d="M2958 1738 c-7 -17 15 -19 29 -3 4 4 3 5 -4 2 -6 -4 -13 -2 -15 5 -3
8 -6 6 -10 -4z"/>
<path d="M910 1730 c-9 -6 -10 -10 -3 -10 6 0 15 5 18 10 8 12 4 12 -15 0z"/>
<path d="M859 1728 c-5 -18 -6 -38 -1 -34 7 8 12 36 6 36 -2 0 -4 -1 -5 -2z"/>
<path d="M2950 1699 c0 -5 5 -7 10 -4 6 3 10 8 10 11 0 2 -4 4 -10 4 -5 0 -10
-5 -10 -11z"/>
<path d="M881 1686 c-9 -10 -8 -15 3 -19 9 -4 18 -1 22 5 5 7 2 8 -6 3 -10 -6
-12 -4 -7 8 8 21 3 22 -12 3z"/>
<path d="M2975 1689 c-6 -8 -4 -10 5 -4 9 5 10 1 6 -16 -6 -21 -6 -22 5 -6 7
13 8 22 1 29 -6 6 -12 6 -17 -3z"/>
<path d="M814 1669 c0 -13 3 -15 13 -7 7 6 13 12 13 13 0 2 -6 5 -13 8 -7 3
-13 -3 -13 -14z"/>
<path d="M3013 1669 c-2 -23 3 -25 10 -4 4 8 3 16 -1 19 -4 3 -9 -4 -9 -15z"/>
<path d="M2952 1661 c-11 -7 -11 -9 0 -14 9 -3 15 1 15 9 0 8 -1 14 -1 14 -1
0 -7 -4 -14 -9z"/>
<path d="M840 1650 c-9 -6 -10 -10 -3 -10 6 0 15 5 18 10 8 12 4 12 -15 0z"/>
<path d="M625 1629 c-3 -4 2 -6 10 -5 21 3 28 13 10 13 -9 0 -18 -4 -20 -8z"/>
<path d="M813 1625 c0 -8 4 -12 9 -9 5 3 6 10 3 15 -9 13 -12 11 -12 -6z"/>
<path d="M2987 1634 c-4 -4 -7 -12 -7 -18 0 -6 5 -4 10 4 9 13 11 13 21 0 9
-12 10 -12 7 -1 -5 17 -21 25 -31 15z"/>
<path d="M2956 1605 c-9 -26 -7 -32 5 -12 6 10 9 21 6 23 -2 3 -7 -2 -11 -11z"/>
<path d="M2975 1590 c-3 -5 -1 -10 4 -10 6 0 11 5 11 10 0 6 -2 10 -4 10 -3 0
-8 -4 -11 -10z"/>
<path d="M3007 1589 c7 -7 15 -10 18 -7 3 3 -2 9 -12 12 -14 6 -15 5 -6 -5z"/>
<path d="M786 1553 c-6 -14 -5 -15 5 -6 7 7 10 15 7 18 -3 3 -9 -2 -12 -12z"/>
<path d="M810 1566 c0 -2 8 -10 18 -17 15 -13 16 -12 3 4 -13 16 -21 21 -21
13z"/>
<path d="M2955 1560 c-3 -6 1 -7 9 -4 18 7 21 14 7 14 -6 0 -13 -4 -16 -10z"/>
<path d="M3028 1563 c6 -2 9 -10 6 -15 -4 -7 -2 -8 5 -4 13 9 5 26 -12 25 -9
0 -8 -2 1 -6z"/>
<path d="M2999 1519 c-6 -13 -7 -19 -1 -15 6 3 13 0 16 -6 3 -7 3 -2 0 11 -5
17 -3 21 6 16 9 -5 11 -4 6 3 -10 16 -14 15 -27 -9z"/>
<path d="M661 1514 c0 -11 3 -14 6 -6 3 7 2 16 -1 19 -3 4 -6 -2 -5 -13z"/>
<path d="M853 1515 c0 -7 6 -11 14 -8 7 3 13 6 13 8 0 2 -6 5 -13 8 -8 3 -14
-1 -14 -8z"/>
<path d="M635 1511 c-3 -5 -2 -12 3 -15 5 -3 9 1 9 9 0 17 -3 19 -12 6z"/>
<path d="M3039 1518 c-8 -27 -5 -36 9 -30 10 4 12 7 4 10 -7 2 -10 8 -6 13 3
5 3 9 0 9 -3 0 -6 -1 -7 -2z"/>
<path d="M2991 1483 c4 -21 -2 -34 -13 -27 -7 4 -8 3 -4 -4 10 -16 14 -15 26
7 7 14 7 22 0 26 -6 4 -10 3 -9 -2z"/>
<path d="M3668 1467 c-3 -19 -2 -25 4 -19 6 6 8 18 6 28 -3 14 -5 12 -10 -9z"/>
<path d="M770 1470 c0 -5 5 -10 10 -10 6 0 10 5 10 10 0 6 -4 10 -10 10 -5 0
-10 -4 -10 -10z"/>
<path d="M806 1471 c3 -3 21 -6 39 -6 19 -1 32 1 29 4 -3 3 -21 6 -39 6 -19 1
-32 -1 -29 -4z"/>
<path d="M650 1451 c0 -6 4 -13 10 -16 6 -3 7 1 4 9 -7 18 -14 21 -14 7z"/>
<path d="M3033 1438 c1 -15 6 -23 11 -18 4 4 4 16 -2 26 -9 16 -10 14 -9 -8z"/>
<path d="M2990 1420 l-25 -21 28 12 c15 7 27 16 27 21 0 11 -1 10 -30 -12z"/>
<path d="M673 1399 c-2 -23 3 -25 10 -4 4 8 3 16 -1 19 -4 3 -9 -4 -9 -15z"/>
<path d="M790 1412 c0 -5 7 -9 15 -9 8 0 12 4 9 9 -3 4 -9 8 -15 8 -5 0 -9 -4
-9 -8z"/>
<path d="M3050 1399 c0 -5 -4 -8 -9 -4 -6 3 -15 -5 -21 -17 -10 -21 -10 -22 4
-5 8 10 18 18 22 17 5 -1 10 3 12 9 2 6 1 11 -2 11 -3 0 -6 -5 -6 -11z"/>
<path d="M3651 1384 c0 -11 3 -14 6 -6 3 7 2 16 -1 19 -3 4 -6 -2 -5 -13z"/>
<path d="M849 1353 c-8 -9 -9 -14 -2 -10 6 4 13 1 16 -5 3 -7 4 -3 4 10 -1 26
-1 26 -18 5z"/>
<path d="M685 1350 c-3 -5 -1 -10 4 -10 6 0 11 5 11 10 0 6 -2 10 -4 10 -3 0
-8 -4 -11 -10z"/>
<path d="M2990 1355 c0 -5 5 -17 10 -25 5 -8 10 -10 10 -5 0 6 -5 17 -10 25
-5 8 -10 11 -10 5z"/>
<path d="M3025 1349 c-4 -6 -5 -12 -2 -15 2 -3 7 2 10 11 7 17 1 20 -8 4z"/>
<path d="M787 1323 c3 -7 6 -13 8 -13 2 0 5 6 8 13 3 8 -1 14 -8 14 -7 0 -11
-6 -8 -14z"/>
<path d="M839 1317 c29 -32 28 -31 28 -12 0 8 -3 13 -5 10 -3 -3 -15 3 -26 12
-15 13 -14 10 3 -10z"/>
<path d="M2970 1306 c0 -8 4 -18 10 -21 6 -4 7 1 3 11 -5 13 -3 15 7 9 9 -5
11 -4 6 3 -10 17 -26 15 -26 -2z"/>
<path d="M3027 1303 c3 -7 6 -13 8 -13 2 0 5 6 8 13 3 8 -1 14 -8 14 -7 0 -11
-6 -8 -14z"/>
<path d="M820 1296 c0 -2 8 -10 18 -17 15 -13 16 -12 3 4 -13 16 -21 21 -21
13z"/>
<path d="M3635 1289 c-4 -6 -5 -12 -2 -15 2 -3 7 2 10 11 7 17 1 20 -8 4z"/>
<path d="M2962 1266 c7 -8 15 -12 17 -11 5 6 -10 25 -20 25 -5 0 -4 -6 3 -14z"/>
<path d="M3000 1265 c-19 -22 -8 -25 13 -3 9 10 13 18 8 18 -5 0 -14 -7 -21
-15z"/>
<path d="M873 1245 c0 -7 6 -11 14 -8 7 3 13 6 13 8 0 2 -6 5 -13 8 -8 3 -14
-1 -14 -8z"/>
<path d="M3015 1250 c-4 -6 1 -7 11 -3 13 5 15 3 9 -7 -5 -9 -4 -11 4 -6 6 4
9 12 6 17 -8 12 -22 12 -30 -1z"/>
<path d="M785 1230 c-3 -6 1 -7 9 -4 18 7 21 14 7 14 -6 0 -13 -4 -16 -10z"/>
<path d="M2945 1230 c-3 -5 -1 -10 4 -10 6 0 11 5 11 10 0 6 -2 10 -4 10 -3 0
-8 -4 -11 -10z"/>
<path d="M717 1217 c-3 -8 1 -14 8 -14 7 0 11 6 8 14 -3 7 -6 13 -8 13 -2 0
-5 -6 -8 -13z"/>
<path d="M795 1191 c-3 -5 -2 -12 3 -15 5 -3 9 1 9 9 0 17 -3 19 -12 6z"/>
<path d="M868 1188 c5 -5 16 -8 23 -6 8 3 3 7 -10 11 -17 4 -21 3 -13 -5z"/>
<path d="M2940 1196 c0 -2 7 -7 16 -10 8 -3 12 -2 9 4 -6 10 -25 14 -25 6z"/>
<path d="M716 1168 c3 -5 10 -6 15 -3 13 9 11 12 -6 12 -8 0 -12 -4 -9 -9z"/>
<path d="M845 1150 c-3 -6 1 -7 9 -4 18 7 21 14 7 14 -6 0 -13 -4 -16 -10z"/>
<path d="M2936 1131 c-3 -4 6 -6 19 -3 14 2 25 6 25 8 0 8 -39 4 -44 -5z"/>
<path d="M897 1123 c-10 -9 -9 -23 1 -23 5 0 9 7 9 15 0 17 -1 18 -10 8z"/>
<path d="M736 1108 c3 -5 10 -6 15 -3 13 9 11 12 -6 12 -8 0 -12 -4 -9 -9z"/>
<path d="M2908 1078 c-10 -10 -14 -18 -9 -18 10 0 36 29 30 34 -2 1 -12 -6
-21 -16z"/>
<path d="M914 1079 c-3 -6 -2 -15 3 -20 5 -5 9 -1 9 11 0 23 -2 24 -12 9z"/>
<path d="M2993 1075 c0 -8 4 -12 9 -9 5 3 6 10 3 15 -9 13 -12 11 -12 -6z"/>
<path d="M2947 1067 c3 -4 7 -6 11 -3 3 3 11 -2 18 -12 12 -15 13 -15 8 5 -4
13 -13 21 -24 20 -10 -1 -16 -5 -13 -10z"/>
<path d="M2916 1051 c-3 -5 0 -14 8 -20 10 -9 15 -8 19 3 4 11 1 13 -10 9 -11
-4 -14 -2 -9 5 4 7 5 12 2 12 -3 0 -7 -4 -10 -9z"/>
<path d="M3553 1053 c4 -3 1 -13 -6 -22 -11 -14 -10 -14 5 -2 16 12 16 31 1
31 -4 0 -3 -3 0 -7z"/>
<path d="M2956 1025 c-9 -26 -7 -32 5 -12 6 10 9 21 6 23 -2 3 -7 -2 -11 -11z"/>
<path d="M2895 1010 c-3 -6 1 -7 9 -4 18 7 21 14 7 14 -6 0 -13 -4 -16 -10z"/>
<path d="M2906 992 c-3 -5 1 -9 9 -9 8 0 12 4 9 9 -3 4 -7 8 -9 8 -2 0 -6 -4
-9 -8z"/>
<path d="M2870 981 c13 -10 13 -12 0 -22 -13 -9 -13 -10 0 -6 8 2 15 10 15 17
0 7 -7 15 -15 17 -13 4 -13 3 0 -6z"/>
<path d="M3495 970 c3 -5 8 -10 11 -10 2 0 4 5 4 10 0 6 -5 10 -11 10 -5 0 -7
-4 -4 -10z"/>
<path d="M2915 940 c-3 -5 -1 -10 4 -10 6 0 11 5 11 10 0 6 -2 10 -4 10 -3 0
-8 -4 -11 -10z"/>
<path d="M2832 904 c10 -10 20 -16 22 -13 3 3 -5 11 -17 18 -21 13 -21 12 -5
-5z"/>
<path d="M2876 903 c-6 -14 -5 -15 5 -6 7 7 10 15 7 18 -3 3 -9 -2 -12 -12z"/>
<path d="M3465 910 c3 -5 8 -10 11 -10 2 0 4 5 4 10 0 6 -5 10 -11 10 -5 0 -7
-4 -4 -10z"/>
<path d="M994 878 l-19 -23 25 20 c14 11 27 21 29 22 2 2 0 3 -6 3 -5 0 -18
-10 -29 -22z"/>
<path d="M2810 890 c0 -5 5 -10 11 -10 5 0 7 5 4 10 -3 6 -8 10 -11 10 -2 0
-4 -4 -4 -10z"/>
<path d="M3470 869 c0 -5 5 -7 10 -4 6 3 10 8 10 11 0 2 -4 4 -10 4 -5 0 -10
-5 -10 -11z"/>
<path d="M2833 833 c-3 -10 -8 -22 -11 -27 -3 -5 0 -6 5 -3 11 7 25 47 17 47
-3 0 -7 -8 -11 -17z"/>
<path d="M2751 787 c-1 -11 -6 -15 -13 -11 -7 5 -8 3 -3 -5 10 -16 29 2 22 21
-4 8 -6 7 -6 -5z"/>
<path d="M2795 790 c3 -5 8 -10 11 -10 2 0 4 5 4 10 0 6 -5 10 -11 10 -5 0 -7
-4 -4 -10z"/>
<path d="M3373 775 c0 -8 4 -12 9 -9 5 3 6 10 3 15 -9 13 -12 11 -12 -6z"/>
<path d="M2831 754 c0 -11 3 -14 6 -6 3 7 2 16 -1 19 -3 4 -6 -2 -5 -13z"/>
<path d="M2720 750 c8 -5 20 -10 25 -10 6 0 3 5 -5 10 -8 5 -19 10 -25 10 -5
0 -3 -5 5 -10z"/>
<path d="M3348 753 c6 -2 9 -10 6 -15 -4 -7 -2 -8 5 -4 13 9 5 26 -12 25 -9 0
-8 -2 1 -6z"/>
<path d="M2788 733 c6 -2 10 -9 7 -13 -3 -5 0 -12 6 -16 8 -4 9 -3 5 4 -4 7
-1 12 6 12 9 0 9 3 -2 10 -8 5 -19 9 -25 9 -5 0 -4 -3 3 -6z"/>
<path d="M1134 719 c-3 -6 -2 -15 3 -20 5 -5 9 -1 9 11 0 23 -2 24 -12 9z"/>
<path d="M2704 715 c-18 -15 -18 -15 0 -8 13 4 17 3 12 -5 -3 -6 -3 -13 2 -16
4 -2 8 6 8 20 0 13 0 24 -1 24 -1 0 -10 -7 -21 -15z"/>
<path d="M3318 723 c7 -3 16 -2 19 1 4 3 -2 6 -13 5 -11 0 -14 -3 -6 -6z"/>
<path d="M2639 688 c-6 -21 -5 -37 2 -32 5 3 7 9 4 14 -3 4 1 11 7 13 10 4 10
6 1 6 -7 1 -13 0 -14 -1z"/>
<path d="M2747 669 c7 -7 15 -10 18 -7 3 3 -2 9 -12 12 -14 6 -15 5 -6 -5z"/>
<path d="M1210 649 c0 -5 5 -7 10 -4 6 3 10 8 10 11 0 2 -4 4 -10 4 -5 0 -10
-5 -10 -11z"/>
<path d="M2670 644 c6 -6 7 -14 3 -17 -3 -4 -2 -7 4 -7 6 0 13 8 15 18 4 12
-1 18 -13 18 -12 0 -15 -4 -9 -12z"/>
<path d="M2726 652 c-3 -5 1 -9 9 -9 8 0 12 4 9 9 -3 4 -7 8 -9 8 -2 0 -6 -4
-9 -8z"/>
<path d="M1234 626 c1 -8 5 -18 8 -22 4 -3 5 1 4 10 -1 8 -5 18 -8 22 -4 3 -5
-1 -4 -10z"/>
<path d="M2596 624 c-8 -20 -8 -24 2 -24 4 0 8 9 9 20 2 24 -3 26 -11 4z"/>
<path d="M3237 622 c-15 -16 -15 -19 -2 -19 8 0 13 3 10 5 -3 3 0 11 6 19 17
20 5 16 -14 -5z"/>
<path d="M2650 601 c-8 -6 -18 -7 -24 -4 -5 3 -6 1 -2 -5 4 -6 14 -8 23 -5 10
4 14 2 9 -5 -3 -6 -1 -14 5 -18 7 -4 9 -3 5 4 -3 5 0 13 6 15 10 4 10 6 0 6
-7 1 -10 6 -7 11 8 12 4 12 -15 1z"/>
<path d="M2557 580 c21 -24 24 -25 16 -3 -5 12 -3 14 8 8 8 -4 11 -4 6 0 -4 5
-16 10 -27 12 -19 3 -19 2 -3 -17z"/>
<path d="M1315 560 c-3 -6 1 -7 9 -4 18 7 21 14 7 14 -6 0 -13 -4 -16 -10z"/>
<path d="M2605 550 c-3 -5 -1 -10 4 -10 6 0 11 5 11 10 0 6 -2 10 -4 10 -3 0
-8 -4 -11 -10z"/>
<path d="M2520 514 c-13 -32 -12 -34 2 -34 6 0 9 3 5 6 -3 3 -2 17 3 30 5 13
7 24 5 24 -3 0 -10 -12 -15 -26z"/>
<path d="M2426 513 c-4 -9 -4 -14 0 -10 4 4 13 -1 21 -11 12 -15 13 -14 2 8
-16 33 -16 33 -23 13z"/>
<path d="M3136 508 c3 -5 10 -6 15 -3 13 9 11 12 -6 12 -8 0 -12 -4 -9 -9z"/>
<path d="M2368 483 c-22 -5 -24 -20 -3 -20 8 0 16 6 19 14 3 7 4 12 3 12 -1
-1 -10 -3 -19 -6z"/>
<path d="M2396 463 c-6 -14 -5 -15 5 -6 7 7 10 15 7 18 -3 3 -9 -2 -12 -12z"/>
<path d="M3090 470 c0 -5 5 -10 11 -10 5 0 7 5 4 10 -3 6 -8 10 -11 10 -2 0
-4 -4 -4 -10z"/>
<path d="M2310 461 c0 -6 4 -13 10 -16 6 -3 7 1 4 9 -7 18 -14 21 -14 7z"/>
<path d="M2438 441 c5 -13 3 -14 -9 -4 -13 11 -15 9 -14 -7 1 -11 5 -23 10
-27 4 -5 5 -2 1 5 -4 6 -3 12 3 12 6 0 15 8 20 18 7 14 6 19 -4 19 -8 0 -11
-7 -7 -16z"/>
<path d="M2279 437 c8 -10 16 -15 19 -12 3 3 14 -3 24 -12 18 -16 18 -16 12 0
-3 9 -10 18 -15 18 -20 3 -25 5 -39 14 -13 8 -13 7 -1 -8z"/>
<path d="M2979 433 c-13 -16 -12 -17 4 -4 16 13 21 21 13 21 -2 0 -10 -8 -17
-17z"/>
<path d="M1519 423 c-13 -16 -12 -17 4 -4 16 13 21 21 13 21 -2 0 -10 -8 -17
-17z"/>
<path d="M2233 414 c0 -8 8 -21 17 -29 14 -13 17 -13 17 -1 0 8 -3 15 -6 14
-18 -2 -24 3 -13 11 11 7 11 9 0 14 -9 3 -15 -1 -15 -9z"/>
<path d="M2390 411 c0 -6 4 -13 10 -16 6 -3 7 1 4 9 -7 18 -14 21 -14 7z"/>
<path d="M2133 395 c0 -7 8 -10 19 -7 10 2 18 6 18 7 0 1 -8 5 -18 7 -11 3
-19 0 -19 -7z"/>
<path d="M1649 387 c6 -8 7 -18 3 -22 -4 -5 -1 -5 6 -1 10 6 10 11 1 22 -6 8
-14 14 -16 14 -3 0 0 -6 6 -13z"/>
<path d="M2176 383 c-6 -14 -5 -15 5 -6 7 7 10 15 7 18 -3 3 -9 -2 -12 -12z"/>
<path d="M2927 389 c7 -7 15 -10 18 -7 3 3 -2 9 -12 12 -14 6 -15 5 -6 -5z"/>
<path d="M1939 378 c-5 -18 -6 -38 -2 -34 4 3 16 -2 27 -11 15 -14 18 -14 8
-2 -6 9 -8 19 -4 23 4 4 0 6 -8 4 -8 -1 -14 3 -12 10 2 10 -6 19 -9 10z"/>
<path d="M1873 355 c0 -8 3 -13 5 -10 3 3 10 0 17 -5 8 -7 12 -5 12 5 0 8 -3
13 -5 10 -3 -3 -10 0 -17 5 -8 7 -12 5 -12 -5z"/>
<path d="M2053 347 c0 -12 1 -16 4 -9 3 6 9 10 13 7 5 -3 12 0 16 7 4 7 4 10
-1 6 -4 -4 -13 -4 -19 2 -8 6 -12 2 -13 -13z"/>
<path d="M2266 355 c-11 -8 -15 -15 -9 -15 6 0 16 7 23 15 16 19 11 19 -14 0z"/>
<path d="M2126 348 c3 -4 9 -8 15 -8 5 0 9 4 9 8 0 5 -7 9 -15 9 -8 0 -12 -4
-9 -9z"/>
<path d="M2190 351 c0 -10 19 -25 25 -20 1 2 -3 10 -11 17 -8 7 -14 8 -14 3z"/>
<path d="M2295 350 c-3 -6 1 -7 9 -4 18 7 21 14 7 14 -6 0 -13 -4 -16 -10z"/>
<path d="M2855 341 c-3 -5 -2 -12 3 -15 5 -3 9 1 9 9 0 17 -3 19 -12 6z"/>
<path d="M2000 325 c-7 -9 -11 -17 -9 -20 3 -2 10 5 17 15 14 24 10 26 -8 5z"/>
<path d="M2080 325 c-7 -9 -8 -15 -2 -15 5 0 12 7 16 15 3 8 4 15 2 15 -2 0
-9 -7 -16 -15z"/>
<path d="M2165 329 c-4 -6 -5 -12 -2 -15 2 -3 7 2 10 11 7 17 1 20 -8 4z"/>
<path d="M1735 319 c-4 -6 -5 -12 -2 -15 2 -3 7 2 10 11 7 17 1 20 -8 4z"/>
<path d="M1835 320 c-3 -6 1 -7 9 -4 18 7 21 14 7 14 -6 0 -13 -4 -16 -10z"/>
<path d="M1873 315 c0 -8 4 -12 9 -9 5 3 6 10 3 15 -9 13 -12 11 -12 -6z"/>
<path d="M1935 310 c1 -11 5 -23 10 -27 4 -5 5 -3 2 4 -4 6 -2 13 4 15 7 2 6
8 -3 16 -12 9 -14 8 -13 -8z"/>
<path d="M2020 310 c-9 -6 -10 -10 -3 -10 6 0 15 5 18 10 8 12 4 12 -15 0z"/>
<path d="M2050 311 c0 -6 4 -13 10 -16 6 -3 7 1 4 9 -7 18 -14 21 -14 7z"/>
<path d="M2796 303 c-6 -14 -5 -15 5 -6 7 7 10 15 7 18 -3 3 -9 -2 -12 -12z"/>
<path d="M2679 263 c-13 -16 -12 -17 4 -4 9 7 17 15 17 17 0 8 -8 3 -21 -13z"/>
<path d="M2470 220 c0 -5 5 -10 11 -10 5 0 7 5 4 10 -3 6 -8 10 -11 10 -2 0
-4 -4 -4 -10z"/>
<path d="M1994 199 c1 -7 10 -13 19 -15 9 -1 15 2 11 7 -3 5 -9 7 -14 4 -4 -3
-11 0 -13 5 -3 6 -4 5 -3 -1z"/>
<path d="M2120 192 c0 -5 7 -9 15 -9 8 0 12 4 9 9 -3 4 -9 8 -15 8 -5 0 -9 -4
-9 -8z"/>
<path d="M2243 193 c-7 -2 -13 -9 -13 -15 0 -7 5 -7 13 1 8 6 17 8 20 4 4 -3
7 -1 7 5 0 13 -7 14 -27 5z"/>
<path d="M2395 190 c-3 -5 -1 -10 4 -10 6 0 11 5 11 10 0 6 -2 10 -4 10 -3 0
-8 -4 -11 -10z"/>
</g>
</svg>
